<?xml version="1.0" standalone="no"?>
<!DOCTYPE svg PUBLIC "-//W3C//DTD SVG 20010904//EN"
 "http://www.w3.org/TR/2001/REC-SVG-20010904/DTD/svg10.dtd">
<svg version="1.0" xmlns="http://www.w3.org/2000/svg"
 width="400.000000pt" height="400.000000pt" viewBox="0 0 400.000000 400.000000"
 preserveAspectRatio="xMidYMid meet">
<metadata>
Created by potrace 1.14, written by Peter Selinger 2001-2017
</metadata>
<g transform="translate(0.000000,400.000000) scale(0.100000,-0.100000)"
fill="#000000" stroke="none">
<path d="M71 3965 c-11 -30 -41 -50 -41 -27 0 5 -7 9 -15 9 -13 0 -15 -34 -15
-243 l0 -242 98 -33 c108 -36 235 -49 225 -23 -3 8 -9 14 -13 14 -5 0 -7 11
-4 24 2 14 -1 26 -8 29 -7 2 1 2 17 -1 47 -8 60 -8 65 3 3 6 -11 15 -30 22
l-35 12 45 -2 c34 -1 45 2 45 13 0 8 4 18 9 21 4 4 -1 16 -13 28 -28 28 -27
33 7 25 22 -5 25 -4 15 7 -18 19 -16 27 10 39 21 10 21 10 3 -4 -17 -14 -17
-16 -2 -31 12 -13 16 -33 15 -76 -1 -32 -5 -59 -8 -59 -4 0 -8 -15 -10 -32 -4
-45 -8 -72 -11 -78 -2 -3 -4 -12 -5 -20 -4 -28 -17 -60 -25 -60 -5 0 -6 -9 -3
-20 3 -11 1 -20 -3 -20 -5 0 -10 -21 -11 -47 -1 -25 -6 -49 -11 -52 -5 -3 -8
-22 -8 -42 1 -26 -2 -35 -11 -32 -19 7 -16 -8 4 -23 11 -8 13 -13 6 -14 -7 0
-10 -7 -6 -16 4 -10 -1 -17 -15 -21 -17 -4 -20 -9 -12 -23 7 -14 6 -23 -6 -34
-8 -9 -16 -32 -17 -51 -2 -25 -6 -34 -16 -30 -11 4 -12 3 -1 -10 10 -12 10
-15 -3 -15 -11 0 -13 -6 -10 -21 5 -19 3 -21 -18 -16 -13 3 -31 1 -39 -4 -13
-9 -13 -10 2 -6 19 6 33 -19 15 -27 -7 -2 -4 -5 6 -5 9 -1 17 -5 17 -10 0 -5
-10 -7 -22 -4 -22 4 -22 4 -4 -11 18 -14 18 -15 -5 -21 -13 -3 -37 -1 -54 5
-27 9 -26 10 14 6 30 -3 40 -2 30 5 -7 5 -23 9 -34 9 -12 0 -16 3 -9 8 7 4 14
24 17 45 4 28 1 37 -10 37 -8 0 -11 -5 -7 -12 4 -7 3 -9 -1 -5 -21 19 -12 33
19 29 l31 -5 -19 22 c-11 11 -14 21 -8 21 5 0 8 9 5 20 -4 16 -2 19 11 14 12
-5 15 -2 10 10 -4 10 -1 16 7 16 8 0 5 6 -7 15 -18 14 -18 14 6 16 l25 1 -25
8 c-18 6 -20 8 -7 9 33 2 7 21 -28 21 -20 0 -42 8 -52 18 -25 26 -50 33 -57
16 -7 -18 -26 -18 -26 0 0 8 -5 18 -12 22 -8 5 -9 0 -6 -14 5 -17 2 -22 -13
-22 -19 0 -19 -31 -19 -1510 l0 -1510 1389 0 c1247 0 1391 2 1405 16 19 19 20
26 4 42 -8 8 -9 12 -1 12 6 0 13 -5 15 -11 5 -16 35 0 41 21 4 14 -2 22 -22
29 -14 5 -20 10 -13 10 7 1 10 6 7 11 -4 6 -15 8 -26 5 -14 -5 -22 1 -31 19
-7 16 -19 26 -33 26 -12 0 -24 3 -27 6 -9 8 35 51 49 46 6 -2 20 1 30 7 19 11
15 12 -31 15 -22 1 -35 26 -14 26 12 0 14 11 9 64 -1 4 -8 6 -16 2 -17 -6 -19
2 -7 22 5 7 16 10 25 6 9 -3 17 -2 17 4 0 6 -12 15 -27 20 -16 6 -22 11 -14
11 11 1 11 4 1 16 -10 12 -10 15 1 15 9 0 7 5 -5 11 -15 9 -16 13 -5 20 11 7
11 9 1 9 -9 0 -10 5 -4 17 15 28 7 82 -14 98 -21 16 -88 11 -112 -8 -8 -6 -39
-12 -70 -13 -82 -3 -84 -3 -77 -14 3 -5 -7 -10 -22 -10 -84 -2 -99 1 -110 16
-7 10 -19 14 -29 10 -9 -3 -23 -1 -30 5 -15 12 -34 4 -34 -16 0 -33 -30 -45
-110 -45 -43 0 -81 4 -84 9 -3 4 -26 14 -50 21 l-45 12 20 39 c21 43 63 75 91
71 10 -2 18 2 18 8 0 8 9 10 24 6 20 -5 28 0 47 32 13 20 27 40 32 43 5 3 7
12 6 20 -7 31 29 74 96 120 20 13 40 38 47 56 12 33 43 53 83 53 13 0 36 5 50
10 23 9 25 13 15 25 -11 13 -7 15 23 15 19 0 40 -7 47 -15 7 -8 23 -15 36 -15
30 0 42 36 19 59 -16 15 -17 14 -10 -9 l8 -25 -26 27 c-14 16 -30 28 -35 28
-5 0 -15 14 -22 30 -7 17 -17 30 -22 30 -5 0 -14 12 -20 28 -12 32 -95 108
-106 97 -4 -4 -1 -10 6 -12 16 -6 52 -44 52 -55 0 -16 -19 -7 -47 22 -15 17
-32 30 -37 30 -5 0 -28 -16 -52 -35 -71 -58 -149 -85 -214 -74 -8 2 -40 -9
-70 -24 -37 -17 -74 -27 -110 -28 -68 -2 -150 10 -150 22 0 5 0 12 0 17 0 4
11 7 24 8 30 1 56 11 56 22 0 4 -20 13 -44 21 -54 16 -91 2 -81 -30 4 -11 2
-19 -4 -19 -6 0 -11 4 -11 9 0 5 -12 12 -26 15 -18 5 -24 12 -20 22 3 8 0 14
-7 13 -29 -4 -41 1 -30 12 7 7 21 6 48 -5 46 -20 44 -20 38 5 -5 17 -11 20
-32 16 -15 -3 -33 -2 -40 3 -9 5 -27 0 -49 -12 l-35 -20 18 28 c17 26 17 27 0
20 -15 -5 -16 -4 -6 8 10 12 9 15 -8 13 -11 0 -18 -4 -15 -8 2 -4 -9 -12 -25
-17 -16 -6 -64 -34 -106 -62 -42 -28 -79 -50 -81 -47 -3 2 26 24 63 48 37 24
87 61 111 82 46 39 58 44 64 26 4 -13 48 -3 48 11 0 16 -44 22 -75 10 -19 -7
-30 -7 -35 -1 -7 13 -120 -18 -223 -60 -39 -15 -72 -27 -74 -25 -6 6 113 55
210 86 54 18 97 34 94 36 -3 3 -56 -11 -159 -43 -10 -3 -18 0 -18 6 0 6 8 11
18 11 16 0 132 37 140 45 1 1 -6 5 -18 8 -11 3 -18 1 -15 -3 3 -5 -27 -15 -67
-24 -145 -30 -165 -35 -267 -60 -57 -15 -106 -24 -109 -22 -2 3 9 8 24 12 104
24 173 47 207 70 21 14 37 27 35 30 -3 2 -40 -3 -84 -11 -140 -25 -151 -25
-54 0 52 13 105 24 118 25 12 0 22 5 22 10 0 6 -11 10 -24 10 -14 0 -28 5 -32
11 -4 8 -63 10 -193 7 -102 -3 -149 -3 -103 -1 45 2 82 7 82 11 0 4 46 9 102
10 107 4 150 12 60 12 -28 0 -54 4 -57 10 -3 5 -30 11 -58 12 -50 1 -51 2 -9
5 23 2 42 9 42 14 0 6 -15 9 -32 7 -25 -2 -34 1 -36 15 -2 9 1 17 7 17 6 0 11
-4 11 -10 0 -5 5 -10 11 -10 5 0 8 4 5 9 -4 5 0 12 6 14 7 3 -4 6 -24 6 -24 1
-38 -4 -38 -11 0 -10 -2 -10 -9 0 -12 19 -198 32 -305 20 -48 -5 -91 -7 -94
-4 -3 3 10 7 29 8 19 1 -15 5 -76 8 -90 5 -69 6 113 8 216 2 224 3 229 22 5
20 26 25 23 6 -3 -17 21 -22 137 -25 65 -1 121 -5 126 -8 13 -8 107 8 101 18
-3 5 -14 9 -25 9 -10 0 -18 3 -18 8 4 25 -3 32 -28 26 -22 -4 -25 -3 -13 5 13
10 8 15 -12 12 -5 0 -8 3 -8 9 0 5 -10 10 -22 10 -20 1 -21 2 -6 10 11 7 26 7
43 0 19 -7 31 -7 40 0 6 5 16 6 20 2 5 -4 5 -2 2 4 -3 6 -21 9 -39 7 -31 -4
-32 -3 -14 11 17 14 17 16 4 16 -9 0 -20 -4 -23 -10 -3 -5 -13 -10 -22 -10
-12 0 -13 3 -4 14 9 11 7 15 -9 19 -31 8 -24 34 10 39 24 4 27 2 18 -9 -9 -11
-7 -12 8 -6 17 6 17 5 5 -10 -16 -20 -14 -20 28 -6 24 9 29 14 19 20 -9 6 -6
9 12 9 20 0 22 2 10 10 -8 5 -11 10 -6 10 14 0 76 -41 76 -50 0 -5 9 -12 20
-15 11 -4 18 -10 15 -14 -2 -4 8 -14 23 -21 15 -7 34 -16 42 -20 24 -11 161
-10 154 2 -3 5 4 4 15 -4 20 -12 17 -13 -36 -18 -40 -3 -52 -7 -39 -13 10 -4
35 -5 55 -1 27 4 32 3 21 -5 -13 -9 -13 -11 3 -11 9 0 17 -3 17 -6 0 -12 -30
-35 -39 -29 -6 3 -14 -3 -20 -12 -6 -11 -11 -13 -11 -5 0 7 -5 10 -10 7 -6 -4
-7 -11 -4 -17 4 -5 0 -8 -7 -6 -8 2 -35 10 -61 17 -33 9 -45 17 -41 27 3 9 13
12 27 9 19 -5 19 -5 3 5 -13 9 -22 9 -31 0 -11 -8 -14 -6 -12 15 1 17 5 23 15
20 11 -4 12 -3 1 10 -14 17 -35 21 -24 4 4 -7 -1 -9 -12 -7 -11 2 -18 10 -16
16 1 7 -2 12 -8 12 -17 0 -11 -18 12 -36 l23 -16 -23 5 c-12 3 -20 1 -16 -4 3
-5 13 -9 22 -9 14 0 14 -2 3 -9 -7 -5 -10 -14 -7 -20 8 -12 10 -12 -89 -21
-23 -2 -18 -4 20 -10 28 -4 58 -4 68 -1 27 10 89 1 84 -12 -2 -6 -14 -14 -28
-18 -19 -6 -15 -7 18 -8 35 -1 41 -4 36 -18 -5 -14 -1 -15 30 -10 20 3 39 1
42 -4 4 -5 16 -9 28 -9 16 0 18 -3 8 -9 -17 -11 -2 -21 43 -30 24 -5 32 -13
34 -34 3 -23 7 -26 33 -23 35 4 51 17 56 46 2 14 -1 18 -14 13 -11 -4 -14 -3
-9 5 5 8 -2 12 -19 12 -15 0 -24 4 -20 10 3 6 17 10 30 10 29 0 42 17 18 23
-12 3 -10 5 8 6 14 0 31 -5 38 -11 10 -11 11 -10 6 5 -7 18 9 24 20 8 3 -5 22
-7 43 -4 35 5 36 5 17 -10 -11 -8 -18 -17 -15 -19 26 -20 63 -38 78 -38 15 0
21 -10 26 -40 3 -22 10 -40 14 -40 15 0 92 -110 99 -141 l6 -31 51 7 c73 9
146 43 139 63 -4 13 -3 14 5 4 8 -12 14 -11 39 1 31 17 59 44 51 52 -2 3 -23
-2 -46 -11 -57 -23 -109 -12 -123 24 -15 41 -20 56 -22 62 0 3 -9 14 -19 24
-10 11 -18 32 -18 48 0 15 -4 28 -10 28 -5 0 -10 7 -10 15 0 8 5 15 12 15 6 0
3 10 -8 22 -19 21 -19 21 4 15 19 -4 21 -3 11 9 -9 11 -9 14 0 14 7 0 9 5 5
11 -4 8 -9 8 -17 0 -15 -15 -27 -14 -27 4 0 8 -5 15 -12 15 -6 0 -8 3 -5 6 4
4 13 2 20 -5 11 -9 17 -8 27 4 10 12 9 20 -4 40 -15 23 -15 25 3 35 26 13 31
13 31 -4 0 -9 7 -12 21 -9 15 4 17 8 8 14 -14 8 -10 11 36 23 11 3 3 4 -17 1
-22 -2 -39 1 -42 8 -5 9 -7 9 -12 0 -3 -7 -10 -13 -16 -13 -6 0 -5 6 2 15 18
22 8 26 -23 10 -15 -8 -25 -10 -22 -5 4 6 -1 13 -9 16 -19 7 -21 24 -3 24 6 0
21 7 31 15 19 14 19 15 -1 22 -16 6 -19 13 -12 31 5 12 14 22 21 22 10 0 10
-2 -1 -9 -11 -7 -10 -11 7 -20 11 -6 27 -8 35 -5 8 3 18 1 22 -5 3 -6 16 -10
28 -10 16 1 17 3 5 6 -30 8 -29 32 2 48 19 10 30 11 30 5 0 -6 5 -8 11 -4 8 4
7 9 -2 14 -16 10 -58 -5 -86 -32 -13 -12 -26 -18 -30 -14 -5 4 0 13 10 20 9 7
17 17 17 22 0 14 55 35 74 28 9 -3 16 -1 16 6 0 6 -4 9 -9 5 -5 -3 -12 -1 -16
5 -3 5 -1 10 4 10 6 0 11 4 11 9 0 6 -16 3 -36 -5 -34 -14 -35 -14 -24 5 7 13
16 18 28 14 9 -3 14 -3 10 2 -4 4 11 17 34 28 23 12 36 23 29 25 -8 3 -18 -2
-23 -9 -8 -11 -8 -10 -4 4 3 10 6 21 6 23 0 2 9 4 20 4 22 0 29 39 8 41 -7 1
12 5 42 9 30 4 59 3 65 -1 5 -6 3 -9 -6 -9 -14 0 -17 -16 -10 -49 1 -2 10 4
21 14 26 23 26 8 0 -25 -23 -29 -25 -46 -8 -53 8 -3 7 -6 -4 -6 -23 -1 -34
-21 -17 -32 12 -8 12 -10 0 -18 -9 -6 -10 -11 -2 -15 18 -11 13 -26 -6 -19
-15 6 -16 4 -5 -9 10 -13 10 -17 0 -21 -9 -3 -1 -15 22 -35 34 -30 35 -31 15
-46 -11 -8 -15 -16 -9 -16 13 0 14 -33 1 -41 -5 -4 0 -10 12 -14 24 -7 24 -9
12 -52 -6 -19 -6 -35 -1 -38 5 -3 5 -16 0 -30 -5 -14 -6 -27 0 -30 9 -6 18 5
37 45 8 18 12 20 12 8 1 -12 9 -18 25 -18 32 0 42 16 19 29 -11 6 -13 11 -5
11 9 0 11 7 7 20 -8 24 16 28 35 5 15 -18 36 -19 47 -2 4 6 31 30 58 52 64 51
75 61 75 73 0 5 7 15 15 22 12 10 13 16 4 26 -12 15 -7 17 26 15 17 -2 17 0 5
8 -13 9 -12 11 3 11 10 0 16 4 12 9 -3 6 0 13 8 18 7 4 19 27 27 51 7 23 19
47 27 53 7 6 13 17 13 24 0 7 7 18 15 25 8 7 15 16 15 21 0 13 -73 -36 -123
-83 -23 -21 -79 -57 -125 -80 -45 -22 -94 -52 -108 -65 -14 -12 -30 -23 -35
-23 -6 0 -7 -4 -4 -10 3 -5 2 -10 -3 -10 -15 0 -22 26 -22 76 l0 44 42 0 c70
0 151 28 195 68 45 41 83 97 83 124 0 19 28 38 48 31 7 -3 10 1 6 11 -9 24
-34 23 -121 -5 -45 -15 -90 -26 -100 -24 -10 3 -40 -8 -68 -23 -56 -30 -85
-77 -107 -170 -7 -29 -17 -51 -21 -49 -5 1 -7 6 -5 9 2 4 -6 13 -16 21 -19 14
-19 15 2 26 12 6 19 17 16 25 -3 8 -1 17 4 20 6 3 20 26 32 51 19 39 85 105
105 105 3 0 13 6 20 14 12 11 12 15 1 19 -7 3 -19 1 -26 -3 -8 -5 -18 -6 -22
-4 -12 8 1 24 15 19 12 -5 37 37 37 62 0 7 8 13 18 13 10 0 19 8 20 18 5 52
10 79 16 94 4 9 4 24 -1 33 -8 14 -13 13 -37 -10 -16 -14 -30 -24 -33 -22 -2
3 13 19 35 37 37 29 39 35 37 76 -2 24 0 44 5 44 4 0 11 7 14 16 4 12 2 15 -9
10 -18 -6 -20 5 -3 22 8 8 8 15 -2 27 -11 13 -9 15 15 15 22 0 26 -3 20 -17
-13 -33 -10 -48 8 -47 18 2 18 1 0 -19 -10 -11 -12 -17 -4 -12 10 6 11 2 5
-16 -4 -13 -7 -32 -6 -41 0 -10 -8 -24 -19 -32 -18 -12 -18 -14 -4 -20 9 -3
20 -4 24 -1 9 5 6 -39 -4 -54 -3 -6 -1 -11 4 -11 17 0 13 -21 -6 -36 -15 -11
-15 -15 -4 -23 11 -7 11 -10 0 -16 -9 -6 -8 -10 6 -15 17 -6 15 -9 -13 -25
-18 -11 -32 -25 -32 -32 0 -15 26 -18 35 -4 3 5 19 12 35 16 17 4 28 11 24 16
-3 5 0 9 7 9 7 0 9 3 6 7 -4 3 -2 12 3 19 6 6 9 18 8 25 -2 10 13 15 57 17 75
4 60 -20 -17 -27 -5 -1 -8 -6 -8 -11 0 -6 12 -8 28 -4 18 4 23 3 14 -4 -24
-17 30 -23 56 -6 12 8 27 12 32 9 6 -3 10 1 10 11 0 13 -6 15 -31 10 -26 -5
-29 -4 -20 8 7 8 20 12 30 9 10 -3 22 0 25 6 5 7 15 7 32 1 35 -14 44 -12 44
5 0 11 -12 15 -42 15 -38 1 -41 2 -25 14 9 7 17 18 17 25 0 6 5 11 11 11 5 0
7 5 4 10 -4 6 6 11 22 11 22 1 24 3 6 6 -22 4 -53 33 -36 33 17 0 9 72 -9 83
-13 9 -21 6 -37 -14 -18 -20 -20 -21 -15 -4 4 11 16 28 28 37 13 11 16 18 8
18 -7 0 -10 5 -6 11 3 6 0 15 -7 20 -10 6 -11 9 -1 9 6 0 12 5 12 11 0 6 -7 9
-14 6 -18 -7 -11 19 12 46 17 19 3 24 -16 5 -9 -9 -12 -9 -12 -1 0 7 4 15 10
18 13 8 13 25 0 25 -5 0 -15 -6 -22 -13 -10 -12 -15 -10 -25 11 -18 34 -16 79
3 86 12 4 15 2 10 -9 -3 -8 -9 -22 -12 -30 -3 -8 -2 -15 2 -15 13 0 54 67 54
86 0 8 6 14 13 11 6 -2 11 -10 9 -16 -3 -14 15 -15 23 -1 3 6 21 10 38 10 18
0 47 4 65 9 20 6 30 6 27 0 -4 -5 -14 -9 -23 -9 -16 -1 -16 -2 0 -13 15 -12
14 -14 -10 -24 -15 -6 -38 -14 -51 -18 -16 -5 -20 -10 -11 -15 18 -11 1 -33
-20 -27 -11 3 -21 -2 -24 -10 -4 -10 -1 -13 12 -9 9 2 33 7 52 11 19 4 43 9
54 12 10 3 16 1 13 -4 -3 -5 -31 -15 -62 -22 -42 -10 -55 -17 -55 -31 0 -10 7
-21 16 -24 8 -3 12 -11 8 -18 -5 -8 0 -9 17 -4 13 5 53 13 88 18 55 9 65 8 73
-6 5 -9 17 -16 26 -17 10 0 12 -3 5 -6 -7 -2 -13 -11 -13 -18 0 -18 -89 -45
-146 -45 -24 0 -46 -4 -49 -10 -3 -6 1 -7 9 -4 18 7 21 -7 5 -23 -18 -18 6
-24 37 -9 27 14 65 19 108 17 16 -1 18 -7 13 -48 -7 -60 -11 -75 -20 -90 -5
-7 -5 -19 -1 -25 12 -18 14 -88 3 -88 -5 0 -9 -17 -9 -38 0 -31 5 -41 30 -56
34 -19 52 -20 185 -10 108 8 121 0 104 -60 -6 -21 -8 -45 -5 -53 6 -15 -23
-336 -44 -488 -5 -38 -16 -140 -25 -225 -9 -85 -23 -173 -30 -195 -20 -59 -29
-168 -16 -193 7 -12 26 -24 45 -28 19 -3 37 -12 40 -20 3 -8 20 -14 41 -14 24
0 35 -5 35 -15 0 -8 9 -19 21 -25 12 -7 18 -18 15 -26 -3 -7 3 -18 14 -24 11
-6 20 -16 20 -23 0 -7 10 -17 22 -22 12 -6 26 -19 32 -30 6 -11 16 -23 22 -27
6 -4 19 -25 29 -48 10 -22 22 -40 27 -40 13 0 9 -40 -6 -56 -11 -11 -16 -11
-19 -1 -3 6 -6 -7 -6 -30 -1 -24 -5 -43 -9 -43 -35 0 -142 -342 -142 -452 l0
-28 80 0 c97 0 163 25 115 44 -12 4 -13 10 -6 24 7 13 6 31 -4 58 -22 61 -19
99 16 192 11 28 25 28 34 0 4 -14 8 -18 12 -10 8 19 40 14 46 -8 3 -11 12 -20
21 -20 12 0 16 -10 16 -40 0 -40 0 -40 39 -40 23 0 41 -5 44 -12 3 -10 9 -8
24 4 11 10 27 18 36 18 16 0 17 113 17 1615 l0 1616 -32 -6 c-18 -3 -64 -10
-103 -16 -38 -5 -74 -14 -80 -20 -5 -5 -22 -9 -37 -9 -28 0 -37 -13 -18 -25
19 -12 11 -26 -9 -15 -11 5 -27 10 -36 10 -13 0 -10 -8 14 -35 17 -20 31 -38
31 -40 0 -3 -13 -2 -30 2 -21 4 -30 2 -30 -8 0 -10 -3 -10 -12 -1 -22 22 -38
15 -28 -14 14 -35 13 -37 -9 -31 -15 4 -19 0 -16 -14 2 -11 0 -19 -6 -19 -5 0
-9 6 -9 14 0 7 -6 18 -13 24 -10 9 -18 -1 -38 -44 l-24 -56 -13 29 c-12 26
-13 25 -8 -24 3 -29 1 -55 -4 -58 -5 -3 -10 9 -12 27 -3 29 -6 33 -28 30 -35
-5 -96 -35 -81 -40 8 -3 7 -8 -5 -17 -13 -9 -26 -10 -46 -3 -31 11 -51 3 -29
-11 8 -5 9 -11 4 -14 -6 -4 -19 0 -29 8 -10 8 -28 14 -39 14 -19 -1 -19 -2 -1
-6 14 -4 16 -7 6 -13 -11 -7 -11 -11 -1 -24 11 -14 11 -16 -5 -16 -16 0 -17
-2 -4 -10 13 -8 12 -10 -3 -10 -14 0 -16 -4 -8 -18 6 -11 6 -24 0 -33 -7 -11
-9 -10 -9 6 0 21 -17 45 -32 45 -4 0 -3 -11 2 -24 8 -23 7 -25 -21 -24 -16 1
-32 -2 -36 -5 -3 -4 5 -7 18 -7 23 -1 22 -2 -6 -14 -19 -8 -25 -15 -17 -20 22
-13 13 -27 -10 -15 -18 10 -20 9 -15 -5 4 -9 2 -16 -3 -16 -6 0 -10 7 -10 15
0 8 -5 15 -11 15 -6 0 -9 -7 -5 -15 3 -8 2 -15 -2 -15 -10 0 -42 38 -42 50 0
6 -4 10 -10 10 -5 0 -9 -10 -7 -22 1 -15 -3 -23 -13 -23 -8 0 -14 7 -14 16 1
12 -11 19 -40 25 l-41 8 33 4 c41 4 42 22 1 22 -17 0 -28 4 -24 10 3 6 14 10
24 10 10 0 24 7 31 15 8 9 8 15 2 15 -6 0 -19 3 -29 6 -15 5 -15 4 -3 -5 26
-18 -1 -26 -31 -9 -17 10 -27 13 -24 8 3 -6 2 -10 -3 -10 -6 0 -13 11 -16 25
-4 14 -14 25 -24 25 -9 1 7 9 36 19 28 10 60 25 70 33 31 27 243 129 273 131
16 1 29 5 29 9 0 4 18 12 39 19 24 7 37 16 35 24 -3 7 11 19 35 29 23 9 41 20
41 26 0 10 47 26 68 22 7 -2 19 4 28 13 8 8 21 15 29 15 7 0 15 6 18 14 6 16
-37 14 -58 -4 -8 -7 -20 -10 -27 -8 -6 2 9 13 35 24 26 10 47 22 47 27 0 13
-54 7 -74 -8 -22 -17 -50 -20 -41 -6 3 5 -3 11 -12 14 -11 2 1 9 30 17 55 14
71 30 28 27 -16 -1 -27 -5 -25 -8 3 -6 -28 -16 -81 -25 -20 -4 -20 -4 -1 11
26 19 13 19 -25 0 -16 -9 -35 -13 -42 -9 -7 4 -8 3 -4 -1 4 -5 -12 -14 -35
-20 -24 -6 -54 -15 -68 -19 -16 -5 -20 -4 -12 2 11 7 8 11 -10 15 -12 4 -36 7
-51 7 -16 0 -26 4 -22 9 3 6 -10 8 -32 5 -31 -4 -34 -3 -15 5 12 6 22 12 22
13 0 2 -22 3 -50 2 -27 0 -50 3 -50 8 0 13 -68 9 -73 -4 -2 -7 -7 -10 -11 -7
-3 3 3 16 14 29 25 29 25 30 0 25 -11 -2 -18 0 -15 5 6 9 -12 23 -33 26 -8 2
-11 -3 -8 -12 6 -14 -27 -38 -38 -27 -12 12 -6 22 9 17 8 -4 15 -1 15 5 0 15
-25 14 -38 -1 -5 -7 -12 -24 -14 -37 -1 -14 -9 -27 -17 -29 -10 -3 -12 0 -8
12 5 14 1 16 -26 13 -18 -2 -38 -6 -44 -10 -7 -5 -17 1 -23 14 -7 11 -14 18
-17 15 -3 -2 4 -18 16 -34 17 -24 18 -32 8 -41 -16 -13 -37 4 -37 31 0 10 -7
18 -16 18 -14 0 -14 3 -4 15 11 13 10 14 -5 8 -14 -5 -17 -3 -12 10 3 8 -1 21
-9 27 -11 10 -14 10 -14 0 0 -7 -9 -3 -20 10 -11 13 -20 31 -20 41 0 12 -5 16
-15 13 -9 -4 -16 2 -20 18 -4 16 -18 29 -40 37 -19 7 -34 17 -32 23 1 6 -12
16 -30 21 -17 5 -34 18 -36 28 -3 11 -26 28 -51 40 -25 11 -46 25 -46 31 0 6
-9 8 -20 5 -11 -3 -20 -1 -20 5 0 5 -5 6 -11 3 -5 -4 -18 3 -28 14 -10 12 -22
21 -26 21 -5 0 -20 13 -34 28 -33 35 -75 62 -98 62 -10 0 -30 7 -45 14 -18 9
-30 11 -34 5 -3 -6 -12 -8 -19 -5 -7 2 -18 -1 -24 -7 -17 -17 -59 -16 -66 2
-5 14 -7 14 -16 1 -8 -13 -12 -12 -25 5 -8 11 -20 19 -25 17 -5 -1 -9 2 -9 8
0 6 -88 10 -245 10 -229 0 -245 -1 -245 -18 0 -10 4 -22 9 -28 6 -5 12 -20 15
-34 14 -79 27 -116 52 -153 16 -23 29 -44 30 -47 0 -3 4 -14 8 -25 16 -42 19
-50 22 -64 1 -8 8 -17 14 -21 8 -5 8 -9 -2 -12 -17 -7 -39 2 -33 12 3 5 -6 21
-20 36 -14 15 -24 33 -21 40 6 15 -28 56 -38 46 -4 -4 -7 -2 -6 3 5 24 -1 55
-13 67 -8 7 -12 20 -10 29 3 9 -1 28 -8 40 -7 13 -12 30 -11 37 2 7 -4 15 -12
18 -9 3 -14 10 -11 15 3 4 3 19 -1 33 l-6 25 -199 -2 c-109 -2 -202 -7 -206
-11 -4 -5 7 -6 25 -4 26 4 32 2 27 -10 -4 -12 2 -14 39 -9 25 4 48 2 51 -2 3
-5 19 -12 35 -16 17 -4 30 -11 30 -15 0 -5 -20 -1 -45 10 -38 16 -48 17 -70 6
-13 -7 -23 -15 -20 -17 2 -3 -19 -5 -48 -6 -29 0 -44 1 -34 4 9 2 15 8 13 12
-3 4 9 6 27 4 l32 -3 -30 15 c-16 8 -43 14 -60 15 -20 0 -26 3 -17 9 23 14
-10 20 -113 20 -104 0 -150 -11 -142 -33 6 -15 -26 -50 -36 -40 -4 4 -5 -10
-4 -29 3 -27 0 -34 -8 -27 -8 7 -11 3 -10 -11 1 -11 8 -25 16 -30 10 -6 10 -9
2 -9 -19 0 -16 -37 5 -49 16 -10 16 -12 -3 -26 -11 -9 -19 -17 -17 -18 2 -1 0
-14 -3 -30 -5 -19 -11 -25 -19 -19 -6 5 -27 12 -46 16 -61 11 -66 19 -36 59
19 25 32 34 44 29 16 -6 16 -4 1 19 -14 20 -14 26 -3 37 7 7 11 18 8 26 -3 8
-1 17 5 21 6 3 11 31 11 61 l0 54 -163 0 -163 0 -13 -35z m1457 7 c2 -7 -2
-10 -12 -6 -9 3 -16 11 -16 16 0 13 23 5 28 -10z m-558 -2 c0 -5 -2 -10 -4
-10 -3 0 -8 5 -11 10 -3 6 -1 10 4 10 6 0 11 -4 11 -10z m90 0 c0 -5 -7 -10
-16 -10 -8 0 -12 5 -9 10 3 6 10 10 16 10 5 0 9 -4 9 -10z m68 -26 c-4 -3 -12
5 -18 18 -12 22 -12 22 6 6 10 -10 15 -20 12 -24z m-408 -32 c0 -1 -9 2 -20 8
-11 6 -20 7 -20 1 0 -5 7 -11 15 -15 8 -3 12 -12 9 -21 -4 -10 0 -15 12 -15
11 -1 32 -7 48 -13 l30 -13 -37 0 c-20 0 -32 3 -26 7 18 10 -43 18 -69 8 -31
-12 -66 -11 -37 1 18 7 18 8 -8 15 -15 4 -39 5 -53 2 -15 -2 -23 0 -21 6 2 7
31 11 70 10 39 -1 65 2 62 8 -4 5 -34 9 -68 10 -51 0 -58 2 -37 10 14 6 41 8
61 5 27 -4 39 -1 43 10 5 12 8 12 26 -3 11 -10 20 -19 20 -21z m384 13 c11 -8
16 -15 10 -15 -5 0 -18 7 -28 15 -11 8 -16 15 -10 15 5 0 18 -7 28 -15z m-134
-15 c-8 -5 -24 -9 -35 -9 l-20 0 20 9 c11 5 27 9 35 9 13 1 13 0 0 -9z m-63
-16 c-3 -3 -12 -4 -19 -1 -8 3 -5 6 6 6 11 1 17 -2 13 -5z m1068 -17 c7 -6 2
-8 -15 -3 -14 3 -35 6 -47 6 -13 0 -23 4 -23 9 0 12 71 2 85 -12z m-1388 -23
c-3 -3 -12 -4 -19 -1 -8 3 -5 6 6 6 11 1 17 -2 13 -5z m263 -4 c13 -8 13 -10
-2 -10 -9 0 -20 5 -23 10 -8 13 5 13 25 0z m65 0 c3 -5 -3 -10 -15 -10 -12 0
-18 5 -15 10 3 6 10 10 15 10 5 0 12 -4 15 -10z m116 -7 c13 -15 12 -15 -8 -4
-24 12 -29 21 -14 21 5 0 15 -7 22 -17z m104 7 c3 -5 1 -10 -4 -10 -6 0 -11 5
-11 10 0 6 2 10 4 10 3 0 8 -4 11 -10z m325 -20 c11 -8 7 -9 -15 -4 -37 8 -45
14 -19 14 10 0 26 -5 34 -10z m-502 -12 c8 -10 1 -13 -31 -14 -23 -1 -34 0
-24 3 9 2 15 9 12 14 -9 14 31 11 43 -3z m-273 -8 c3 -5 1 -10 -4 -10 -6 0
-11 5 -11 10 0 6 2 10 4 10 3 0 8 -4 11 -10z m87 -8 c-22 -7 -22 -8 -4 -23 10
-8 23 -14 30 -13 8 2 9 1 1 -3 -7 -3 4 -19 27 -39 21 -19 33 -34 27 -34 -5 0
-18 9 -28 20 -10 11 -22 17 -28 13 -6 -3 -7 -1 -3 5 11 18 -41 26 -90 15 -24
-6 -44 -6 -44 -2 0 5 9 9 20 9 11 0 23 7 26 15 5 11 11 12 24 5 30 -16 45 -13
29 6 -8 10 -23 14 -41 12 -16 -3 -25 -1 -21 3 10 9 42 17 73 17 24 0 24 0 2
-6z m58 -8 c0 -2 -7 -4 -15 -4 -8 0 -15 4 -15 10 0 5 7 7 15 4 8 -4 15 -8 15
-10z m165 -62 c-3 -3 -11 0 -18 7 -9 10 -8 11 6 5 10 -3 15 -9 12 -12z m-30
-12 c8 -13 -5 -13 -25 0 -13 8 -13 10 2 10 9 0 20 -4 23 -10z m950 -10 c3 -6
-1 -7 -9 -4 -18 7 -21 14 -7 14 6 0 13 -4 16 -10z m-1562 -32 c22 -23 11 -22
-33 2 -31 17 -32 19 -10 17 14 0 33 -9 43 -19z m419 -30 c7 -13 14 -36 16 -51
3 -27 3 -28 -15 -10 -10 10 -16 19 -12 21 10 4 -2 45 -15 54 -8 5 -7 8 1 8 7
0 18 -10 25 -22z m119 -9 c23 -23 13 -25 -12 -3 -10 9 -30 17 -45 17 -18 0
-22 2 -13 8 18 11 46 2 70 -22z m29 17 c0 -3 -4 -8 -10 -11 -5 -3 -10 -1 -10
4 0 6 5 11 10 11 6 0 10 -2 10 -4z m-113 -68 c-3 -8 -6 -5 -6 6 -1 11 2 17 5
13 3 -3 4 -12 1 -19z m83 -5 c0 -14 -3 -23 -7 -19 -10 10 -11 46 -1 46 4 0 8
-12 8 -27z m-33 -9 c-9 -9 -28 6 -21 18 4 6 10 6 17 -1 6 -6 8 -13 4 -17z
m123 22 c0 -11 -19 -15 -25 -6 -3 5 1 10 9 10 9 0 16 -2 16 -4z m908 -23 c-3
-28 -9 -29 -31 -3 -23 27 -22 30 8 28 19 -2 24 -7 23 -25z m23 4 c-10 -9 -11
-8 -5 6 3 10 9 15 12 12 3 -3 0 -11 -7 -18z m-484 -23 c-3 -3 -12 -4 -19 -1
-8 3 -5 6 6 6 11 1 17 -2 13 -5z m-347 -30 c0 -2 -9 0 -20 6 -11 6 -20 13 -20
16 0 2 9 0 20 -6 11 -6 20 -13 20 -16z m1448 -10 c-10 -10 -28 6 -28 24 0 15
1 15 17 -1 9 -9 14 -19 11 -23z m-1618 16 c5 8 11 -4 15 -29 4 -23 4 -45 1
-48 -3 -4 -6 3 -6 14 0 11 -7 26 -15 33 -8 7 -15 20 -14 29 0 12 2 12 6 2 4
-10 7 -11 13 -1z m-107 -75 l22 -30 -32 25 c-17 14 -34 32 -37 40 -3 8 -9 22
-12 30 -6 16 22 -15 59 -65z m1067 59 c0 -8 -5 -12 -10 -9 -6 4 -8 11 -5 16 9
14 15 11 15 -7z m31 -1 c0 -15 2 -15 9 2 l9 20 1 -20 c2 -17 3 -17 7 -2 10 37
31 7 24 -35 0 -5 6 -8 15 -8 10 0 14 -6 10 -15 -3 -10 1 -15 12 -15 11 0 18
-8 19 -22 1 -11 8 -25 15 -30 10 -7 9 -11 -5 -22 -10 -8 -18 -18 -18 -23 -1
-17 -7 -14 -14 7 -4 14 -2 25 5 30 7 4 9 13 5 20 -6 9 -10 9 -16 -1 -8 -12
-11 -12 -18 1 -8 11 -12 9 -20 -13 -12 -31 -22 -37 -14 -8 3 12 -2 20 -16 24
-22 5 -30 50 -11 62 17 11 11 23 -9 18 -15 -4 -18 0 -14 21 6 29 23 35 24 9z
m143 -48 c-4 -8 -10 -15 -15 -15 -4 0 -6 7 -3 15 4 8 10 15 15 15 4 0 6 -7 3
-15z m661 -3 c-3 -3 -11 0 -18 7 -9 10 -8 11 6 5 10 -3 15 -9 12 -12z m-1980
-12 c10 -11 16 -20 13 -20 -3 0 -13 9 -23 20 -10 11 -16 20 -13 20 3 0 13 -9
23 -20z m152 -70 c3 -8 5 -20 4 -26 -1 -6 11 -19 26 -29 l28 -18 -21 24 c-11
13 -19 34 -18 47 4 57 5 58 15 33 8 -20 64 -81 75 -81 3 0 0 9 -6 19 -9 19 -6
18 45 -4 61 -27 73 -19 23 16 -42 30 -62 49 -50 49 5 0 28 -14 50 -30 31 -22
42 -26 42 -15 0 8 -5 15 -12 15 -6 0 -9 3 -6 6 4 3 16 1 27 -6 17 -9 21 -8 21
6 0 16 1 16 18 1 10 -10 22 -14 26 -10 4 5 6 1 4 -7 -4 -20 -38 -39 -57 -33
-13 4 -12 2 1 -10 10 -8 15 -17 11 -21 -4 -4 -1 -11 7 -16 21 -13 33 -12 24 2
-4 6 -3 8 4 4 6 -3 9 -15 7 -26 -3 -15 6 -25 36 -40 21 -11 39 -16 39 -10 0 6
-12 15 -26 20 -17 7 -24 15 -20 25 3 8 1 17 -4 20 -6 4 -10 12 -9 18 0 9 2 9
6 0 2 -7 9 -13 15 -13 10 0 38 -25 38 -35 0 -3 -6 -3 -12 1 -7 4 7 -11 31 -33
36 -32 41 -41 28 -46 -18 -7 -47 1 -47 12 0 8 -44 31 -57 31 -4 0 -1 -6 6 -12
6 -7 17 -13 24 -13 7 0 13 -11 14 -25 1 -14 0 -19 -3 -12 -9 21 -22 13 -16
-10 5 -21 5 -21 -14 -2 -11 10 -16 20 -12 22 11 5 -22 52 -36 51 -8 0 -8 -2 0
-5 7 -3 10 -13 7 -24 -6 -24 -30 -16 -66 24 -26 28 -28 29 -24 8 3 -14 1 -20
-6 -15 -6 4 -8 0 -4 -10 9 -24 -20 -16 -93 24 -39 22 -73 38 -56 27 11 -7 28
-21 38 -30 10 -10 24 -18 31 -18 8 0 8 -3 -2 -9 -12 -8 -13 -13 -2 -28 7 -10
-2 -2 -20 18 -37 39 -101 89 -114 89 -5 0 2 -11 15 -25 16 -17 19 -25 9 -25
-11 -1 -10 -4 4 -14 9 -7 17 -18 17 -25 0 -6 5 -11 11 -11 5 0 8 -4 4 -9 -3
-5 -16 1 -30 15 -13 13 -28 24 -32 25 -4 0 -24 2 -43 4 -19 1 -60 12 -90 23
-43 17 -49 21 -27 22 29 0 34 9 15 29 -11 11 -9 11 10 2 38 -20 47 -7 17 22
-16 14 -27 28 -25 31 5 4 43 -8 95 -30 13 -5 10 1 -10 18 -20 18 -25 26 -13
24 9 -1 26 -10 38 -21 12 -11 20 -13 20 -6 0 7 -11 22 -25 35 -18 17 -20 23
-8 23 8 0 26 -11 40 -25 29 -29 37 -25 23 12 -5 15 -10 46 -9 69 l0 42 15 -40
c8 -22 17 -47 21 -55z m261 65 c-3 -3 -9 2 -12 12 -6 14 -5 15 5 6 7 -7 10
-15 7 -18z m1862 21 c0 -2 -9 -6 -20 -9 -11 -3 -18 -1 -14 4 5 9 34 13 34 5z
m301 -35 c-14 -10 -41 -21 -60 -24 -20 -3 -45 -8 -56 -12 -20 -6 -20 -6 0 6
15 10 115 45 135 48 3 0 -6 -8 -19 -18z m50 -26 c-18 -8 -36 -15 -40 -15 -13
1 45 29 59 29 8 0 0 -6 -19 -14z m-681 1 c0 -11 -19 -15 -25 -6 -3 5 1 10 9
10 9 0 16 -2 16 -4z m-210 -72 c0 -21 -27 -17 -33 5 -3 14 0 17 14 14 11 -3
19 -12 19 -19z m231 13 c-1 -12 -15 -9 -19 4 -3 6 1 10 8 8 6 -3 11 -8 11 -12z
m26 -43 c-3 -3 -12 -4 -19 -1 -8 3 -5 6 6 6 11 1 17 -2 13 -5z m-227 -24 c0
-5 -7 -10 -16 -10 -8 0 -12 5 -9 10 3 6 10 10 16 10 5 0 9 -4 9 -10z m250 0
c0 -5 -5 -10 -11 -10 -5 0 -8 -4 -4 -9 3 -6 -4 -15 -17 -22 -15 -8 -23 -9 -26
-1 -2 6 -10 8 -18 5 -8 -3 -14 0 -14 7 0 8 9 10 25 6 18 -5 25 -2 25 8 0 13
13 23 33 25 4 1 7 -3 7 -9z m-550 -10 c0 -5 -5 -10 -11 -10 -5 0 -7 5 -4 10 3
6 8 10 11 10 2 0 4 -4 4 -10z m-410 -9 c0 -6 -4 -13 -10 -16 -5 -3 -10 1 -10
9 0 9 5 16 10 16 6 0 10 -4 10 -9z m44 1 c7 -12 -7 -28 -32 -34 -15 -4 -20 -2
-15 5 19 35 36 46 47 29z m-184 -12 c0 -5 -5 -10 -11 -10 -5 0 -7 5 -4 10 3 6
8 10 11 10 2 0 4 -4 4 -10z m74 -5 c-4 -8 -8 -15 -10 -15 -2 0 -4 7 -4 15 0 8
4 15 10 15 5 0 7 -7 4 -15z m796 0 c0 -12 -19 -12 -23 0 -4 9 -1 12 9 8 7 -3
14 -7 14 -8z m255 -4 c-3 -6 -11 -11 -17 -11 -6 0 -6 6 2 15 14 17 26 13 15
-4z m-1459 -6 c4 -8 11 -15 16 -15 6 0 7 8 3 18 -5 14 -4 15 6 5 7 -7 21 -13
31 -13 10 0 18 -5 18 -10 0 -12 -57 -10 -82 2 -20 9 -24 28 -8 28 6 0 13 -7
16 -15z m254 -26 c0 -6 -4 -7 -10 -4 -5 3 -10 11 -10 16 0 6 5 7 10 4 6 -3 10
-11 10 -16z m-799 -15 c31 -15 57 -44 40 -44 -6 0 -11 4 -11 10 0 9 -51 40
-66 40 -3 0 -1 -7 6 -15 11 -13 10 -14 -4 -9 -12 5 -15 2 -10 -11 6 -15 5 -15
-15 -4 -18 12 -19 15 -5 19 15 6 15 8 -1 24 -17 16 -16 17 11 10 16 -4 41 -13
55 -20z m1969 6 c0 -5 -5 -10 -11 -10 -5 0 -7 5 -4 10 3 6 8 10 11 10 2 0 4
-4 4 -10z m79 0 c10 0 11 -3 2 -14 -9 -11 -17 -11 -36 -2 -31 14 -33 30 -2 22
12 -3 28 -6 36 -6z m-699 -39 c-1 -18 -18 -30 -37 -25 -20 6 -20 7 -5 35 15
26 18 27 30 12 6 -9 12 -19 12 -22z m-310 8 c-7 -11 -14 -18 -17 -15 -3 3 0
12 7 21 18 21 23 19 10 -6z m-860 -9 c6 -11 9 -20 7 -20 -2 0 -12 9 -22 20
-10 11 -13 20 -7 20 6 0 16 -9 22 -20z m480 -1 c0 -6 -4 -7 -10 -4 -5 3 -10
11 -10 16 0 6 5 7 10 4 6 -3 10 -11 10 -16z m317 -1 c-3 -8 -6 -5 -6 6 -1 11
2 17 5 13 3 -3 4 -12 1 -19z m-397 -2 c0 -23 -16 -27 -17 -5 -1 10 2 19 8 19
5 0 9 -6 9 -14z m485 -26 c-9 -14 8 -13 23 2 8 8 15 8 26 -2 18 -14 14 -25
-17 -41 -18 -9 -20 -9 -9 2 20 21 14 28 -18 19 -16 -5 -30 -7 -30 -5 0 13 14
35 22 35 5 0 6 -4 3 -10z m-395 -10 c0 -5 -5 -10 -11 -10 -5 0 -7 5 -4 10 3 6
8 10 11 10 2 0 4 -4 4 -10z m80 0 c0 -5 -5 -10 -11 -10 -5 0 -7 5 -4 10 3 6 8
10 11 10 2 0 4 -4 4 -10z m201 -13 c-10 -9 -11 -8 -5 6 3 10 9 15 12 12 3 -3
0 -11 -7 -18z m819 0 c0 -14 -6 -24 -15 -24 -8 0 -13 3 -11 6 2 3 6 14 9 24 9
24 17 21 17 -6z m-1582 -12 c-3 -3 -9 2 -12 12 -6 14 -5 15 5 6 7 -7 10 -15 7
-18z m1171 -11 c-6 -16 -13 -24 -16 -17 -5 13 16 58 23 50 3 -2 -1 -17 -7 -33z
m581 -10 c0 -8 -4 -14 -10 -14 -5 0 -7 7 -4 15 4 8 1 15 -5 15 -6 0 -11 5 -11
11 0 8 5 8 15 -1 8 -7 15 -19 15 -26z m-1535 -10 c3 -30 -3 -54 -14 -54 -3 0
-5 21 -3 46 4 49 12 53 17 8z m425 27 c0 -5 -7 -12 -16 -15 -14 -5 -15 -4 -4
9 14 17 20 19 20 6z m38 -16 c-3 -3 -9 2 -12 12 -6 14 -5 15 5 6 7 -7 10 -15
7 -18z m162 21 c0 -3 -4 -8 -10 -11 -5 -3 -10 -1 -10 4 0 6 5 11 10 11 6 0 10
-2 10 -4z m-67 -26 c-3 -11 -9 -20 -14 -20 -11 0 -11 3 -3 24 9 23 23 20 17
-4z m432 -27 c1 -21 -3 -46 -10 -56 -11 -16 -13 -16 -29 8 -9 14 -12 25 -6 25
5 0 10 7 10 16 0 19 20 57 27 51 2 -3 6 -22 8 -44z m625 37 c0 -5 -4 -10 -10
-10 -5 0 -10 5 -10 10 0 6 5 10 10 10 6 0 10 -4 10 -10z m-860 -19 c-16 -31
-32 -36 -18 -7 6 14 15 26 20 26 5 0 4 -9 -2 -19z m907 13 c-3 -3 -12 -4 -19
-1 -8 3 -5 6 6 6 11 1 17 -2 13 -5z m-1410 -26 c-3 -8 -6 -5 -6 6 -1 11 2 17
5 13 3 -3 4 -12 1 -19z m-622 -6 c-3 -3 -11 0 -18 7 -9 10 -8 11 6 5 10 -3 15
-9 12 -12z m1015 13 c0 -2 -10 -9 -22 -15 -22 -11 -22 -10 -4 4 21 17 26 19
26 11z m-163 -27 c-3 -8 -6 -5 -6 6 -1 11 2 17 5 13 3 -3 4 -12 1 -19z m208 0
c-1 -13 -6 -23 -11 -23 -16 0 -34 -16 -29 -25 3 -5 1 -11 -5 -15 -5 -3 -10 -1
-10 5 0 6 -4 8 -10 5 -20 -12 -9 13 13 29 12 9 16 14 10 11 -7 -3 -13 -1 -13
4 0 6 5 12 10 12 6 1 14 2 19 3 5 0 13 4 17 9 10 10 11 10 9 -15z m-578 -10
c-3 -8 -6 -5 -6 6 -1 11 2 17 5 13 3 -3 4 -12 1 -19z m707 5 c4 -10 0 -23 -10
-32 -12 -12 -15 -12 -9 -2 6 11 4 13 -8 8 -20 -7 -21 -3 -7 24 13 23 26 24 34
2z m87 -6 c-10 -9 -11 -8 -5 6 3 10 9 15 12 12 3 -3 0 -11 -7 -18z m219 13 c0
-5 -5 -10 -11 -10 -5 0 -7 5 -4 10 3 6 8 10 11 10 2 0 4 -4 4 -10z m-1752 -31
c3 -19 1 -22 -9 -12 -17 17 -21 45 -6 40 7 -2 14 -14 15 -28z m946 24 c4 -4
15 -8 24 -8 9 0 17 -7 17 -15 0 -8 -7 -15 -15 -15 -8 0 -18 -4 -22 -10 -4 -6
-8 -2 -8 8 0 9 -7 17 -15 17 -9 0 -12 6 -9 15 7 16 17 19 28 8z m251 -42 c-4
-17 -11 -31 -16 -31 -10 0 -12 40 -3 65 11 28 27 0 19 -34z m-134 6 c-8 -8
-11 -7 -11 4 0 20 13 34 18 19 3 -7 -1 -17 -7 -23z m588 -25 c-10 -14 -19 -31
-19 -38 0 -7 -8 -18 -17 -24 -15 -9 -14 -10 7 -4 23 6 23 6 7 -10 -9 -10 -17
-24 -17 -32 0 -8 -4 -14 -10 -14 -5 0 -7 8 -4 18 5 16 5 16 -6 -1 -11 -17 -8
-65 5 -86 3 -6 -2 -11 -12 -12 -10 0 -13 -3 -6 -5 17 -7 -4 -51 -26 -57 -9 -2
-22 -22 -29 -44 -11 -38 -42 -78 -42 -55 0 5 7 15 15 22 8 7 15 18 15 25 0 8
9 34 20 59 21 49 18 58 -9 27 -19 -21 -35 -16 -37 12 -2 14 1 15 11 7 21 -18
54 9 61 50 4 19 13 47 20 62 8 15 14 33 14 40 0 17 -78 -60 -97 -97 -10 -18
-18 -25 -21 -17 -2 8 -8 10 -15 4 -7 -5 -27 -12 -46 -16 -29 -5 -32 -4 -21 9
6 8 15 13 18 12 4 -1 16 5 28 13 22 16 39 50 25 50 -5 0 -11 -6 -14 -12 -2 -7
-8 -10 -12 -5 -11 10 9 30 35 34 17 2 18 0 10 -22 -5 -14 -7 -25 -3 -25 15 0
95 74 109 101 8 16 19 27 24 24 5 -3 12 0 16 6 4 8 3 9 -4 5 -7 -4 -12 -2 -12
3 0 6 5 11 10 11 6 0 10 9 10 20 0 19 1 19 19 3 20 -16 20 -17 0 -41z m-548
11 c-8 -15 -10 -15 -11 -2 0 17 10 32 18 25 2 -3 -1 -13 -7 -23z m395 18 c11
9 14 8 14 -5 0 -9 -4 -16 -10 -16 -5 0 -19 -9 -30 -20 -23 -23 -25 -16 -7 23
6 14 14 22 15 16 3 -6 9 -6 18 2z m-659 -48 c-3 -10 -5 -2 -5 17 0 19 2 27 5
18 2 -10 2 -26 0 -35z m513 27 c-6 -11 -13 -20 -16 -20 -2 0 0 9 6 20 6 11 13
20 16 20 2 0 0 -9 -6 -20z m-1295 0 c3 -5 -1 -10 -9 -10 -9 0 -16 5 -16 10 0
6 4 10 9 10 6 0 13 -4 16 -10z m1335 0 c0 -5 -4 -10 -10 -10 -5 0 -10 5 -10
10 0 6 5 10 10 10 6 0 10 -4 10 -10z m370 -5 c-7 -9 -15 -13 -19 -10 -3 3 1
10 9 15 21 14 24 12 10 -5z m-1389 -12 c13 -16 12 -17 -3 -4 -10 7 -18 15 -18
17 0 8 8 3 21 -13z m550 -10 c-12 -20 -14 -14 -5 12 4 9 9 14 11 11 3 -2 0
-13 -6 -23z m239 14 c0 -7 -7 -22 -15 -33 -13 -17 -14 -16 -4 14 11 33 19 41
19 19z m864 -19 c-4 -13 -7 -27 -6 -32 5 -15 -9 -46 -20 -46 -6 0 -8 11 -5 26
3 16 0 28 -9 31 -20 7 -5 31 17 26 13 -4 19 0 19 13 0 9 3 15 6 11 3 -3 2 -16
-2 -29z m-1897 16 c-3 -3 -12 -4 -19 -1 -8 3 -5 6 6 6 11 1 17 -2 13 -5z
m1084 -17 c-10 -9 -11 -8 -5 6 3 10 9 15 12 12 3 -3 0 -11 -7 -18z m734 0 c-7
-16 -35 -17 -36 -2 0 9 32 25 39 20 1 -1 0 -9 -3 -18z m-535 -2 c-10 -13 -9
-15 9 -15 24 0 24 0 11 -34 -5 -14 -19 -30 -31 -36 -19 -11 -18 -8 7 26 25 33
26 36 7 26 -30 -16 -38 -15 -23 3 7 8 9 15 5 15 -4 0 -2 7 5 15 7 8 15 15 17
15 3 0 0 -7 -7 -15z m89 -17 c-8 -14 -14 -18 -17 -10 -4 13 17 46 25 38 3 -2
-1 -15 -8 -28z m-699 -1 c0 -16 -6 -23 -20 -23 -25 0 -25 4 -2 27 22 23 22 23
22 -4z m390 19 c0 -3 -4 -8 -10 -11 -5 -3 -10 -1 -10 4 0 6 5 11 10 11 6 0 10
-2 10 -4z m-845 -16 c3 -6 -1 -7 -9 -4 -18 7 -21 14 -7 14 6 0 13 -4 16 -10z
m712 -12 c-3 -8 -6 -5 -6 6 -1 11 2 17 5 13 3 -3 4 -12 1 -19z m-407 -8 c6
-11 8 -20 6 -20 -3 0 -10 9 -16 20 -6 11 -8 20 -6 20 3 0 10 -9 16 -20z m47
-2 c-3 -8 -6 -5 -6 6 -1 11 2 17 5 13 3 -3 4 -12 1 -19z m150 -3 c-3 -23 -17
-48 -17 -29 0 15 12 54 17 54 2 0 2 -11 0 -25z m863 -10 c-7 -14 -17 -25 -21
-25 -5 0 0 13 9 29 20 36 31 32 12 -4z m-1647 18 c-7 -2 -21 -2 -30 0 -10 3
-4 5 12 5 17 0 24 -2 18 -5z m2332 -2 c3 -5 -4 -16 -15 -24 -21 -14 -21 -15 5
-21 14 -4 35 -1 48 5 l22 11 -22 -21 c-16 -15 -30 -20 -46 -15 -17 4 -26 1
-30 -10 -4 -9 -14 -16 -23 -16 -15 0 -16 2 -2 18 9 9 13 23 11 30 -3 8 4 16
16 19 17 4 19 8 10 19 -9 11 -8 14 4 14 9 0 18 -4 22 -9z m-462 -16 c-3 -9 -8
-14 -10 -11 -3 3 -2 9 2 15 9 16 15 13 8 -4z m-1010 -20 c-7 -21 -13 -19 -13
6 0 11 4 18 10 14 5 -3 7 -12 3 -20z m1141 13 c-4 -6 -8 -24 -9 -40 -2 -23 1
-28 21 -28 13 0 24 -4 24 -10 0 -19 -25 -65 -42 -78 -10 -7 -18 -21 -17 -30 0
-14 3 -13 16 6 8 12 19 22 23 22 16 0 16 -35 2 -52 -13 -16 -13 -18 -1 -18 8
0 20 5 25 10 7 7 10 4 9 -12 -2 -30 -22 -34 -45 -10 -10 11 -18 22 -17 24 1 2
-6 -5 -15 -15 -10 -11 -18 -25 -18 -33 0 -7 -4 -15 -9 -19 -6 -3 -10 3 -9 12
0 10 -3 33 -7 51 -5 23 -4 32 5 32 7 0 10 -7 6 -16 -4 -9 -1 -14 6 -12 6 2 12
12 14 21 1 9 -2 15 -7 11 -5 -3 -9 0 -9 6 0 7 -7 10 -15 6 -10 -3 -6 9 11 34
15 22 28 51 29 65 2 13 7 29 11 36 5 9 2 10 -9 6 -21 -8 -22 7 -1 27 18 19 39
21 28 4z m120 -3 c-4 -8 -8 -15 -10 -15 -2 0 -4 7 -4 15 0 8 4 15 10 15 5 0 7
-7 4 -15z m-1790 -3 c6 -10 -40 -10 -50 1 -4 4 4 7 19 7 14 0 28 -4 31 -8z
m981 -11 c-3 -6 -11 -11 -17 -11 -6 0 -6 6 2 15 14 17 26 13 15 -4z m945 4 c0
-8 -4 -15 -10 -15 -5 0 -10 7 -10 15 0 8 5 15 10 15 6 0 10 -7 10 -15z m-1860
-5 c0 -5 -2 -10 -4 -10 -3 0 -8 5 -11 10 -3 6 -1 10 4 10 6 0 11 -4 11 -10z
m95 -1 c11 -17 -1 -21 -15 -4 -8 9 -8 15 -2 15 6 0 14 -5 17 -11z m1584 -16
c-10 -11 -14 -11 -20 -1 -14 21 -10 26 11 21 16 -4 18 -8 9 -20z m-1749 -14
c0 -3 -13 -6 -30 -5 -29 1 -38 19 -12 23 8 1 16 4 20 7 5 6 22 -12 22 -25z
m597 9 c-3 -8 -6 -5 -6 6 -1 11 2 17 5 13 3 -3 4 -12 1 -19z m642 -23 c-27
-45 -33 -45 -14 1 8 20 15 38 15 41 0 2 4 2 9 -2 6 -3 1 -21 -10 -40z m131 41
c0 -2 -7 -7 -16 -10 -8 -3 -12 -2 -9 4 6 10 25 14 25 6z m-50 -15 c0 -5 9 -11
20 -14 11 -3 20 -1 20 4 0 5 4 9 9 9 6 0 9 -9 8 -20 -1 -11 -7 -20 -14 -20 -7
0 -13 -7 -13 -15 0 -8 -4 -15 -9 -15 -5 0 -8 -11 -8 -25 0 -28 6 -31 26 -12
11 10 13 9 7 -6 -3 -10 -6 -23 -6 -28 0 -5 -7 -9 -15 -9 -8 0 -15 -2 -15 -4 0
-2 -3 -12 -6 -20 -5 -13 -2 -15 12 -9 23 8 64 50 65 66 0 9 2 9 6 0 6 -15 -46
-85 -57 -78 -5 3 -16 -5 -24 -17 -18 -25 -21 -42 -6 -33 6 3 10 2 10 -4 0 -5
-9 -9 -21 -8 -17 1 -20 6 -16 32 3 16 0 38 -5 48 -5 11 -5 17 2 17 5 0 10 5
10 11 0 6 -7 9 -15 5 -20 -7 -19 4 3 21 9 8 12 12 6 9 -7 -3 -14 1 -17 9 -4 9
-1 12 8 9 7 -3 16 3 20 15 3 12 11 21 16 21 5 0 9 9 9 20 0 28 -14 25 -28 -5
-6 -14 -16 -25 -22 -25 -12 0 -13 5 -1 28 5 9 12 25 15 35 5 17 26 24 26 8z
m560 -7 c0 -7 -7 -15 -16 -18 -21 -8 -20 -9 -20 12 0 10 8 18 18 18 10 0 18
-6 18 -12z m-1510 -22 c0 -15 -2 -15 -10 -2 -13 20 -13 33 0 25 6 -3 10 -14
10 -23z m1457 8 c1 -11 -2 -18 -8 -15 -11 7 -12 35 -1 35 4 0 8 -9 9 -20z m93
11 c0 -5 -7 -12 -16 -15 -14 -5 -15 -4 -4 9 14 17 20 19 20 6z m-1806 -13 c-3
-4 -11 -5 -19 -1 -21 7 -19 12 4 10 11 0 18 -5 15 -9z m140 -13 c-4 -8 -10
-13 -15 -10 -4 3 -6 12 -3 20 4 8 10 13 15 10 4 -3 6 -12 3 -20z m746 1 c0 -8
-7 -16 -15 -20 -13 -4 -14 -2 -5 14 13 23 20 26 20 6z m620 -31 c0 -8 -4 -15
-10 -15 -5 0 -7 7 -4 15 4 8 8 15 10 15 2 0 4 -7 4 -15z m-1595 -32 c4 -13 3
-13 -9 -4 -8 6 -18 11 -22 10 -17 -3 -25 1 -20 10 9 13 44 2 51 -16z m61 12
c9 -8 11 -15 6 -15 -5 0 -15 7 -22 15 -7 8 -9 15 -6 15 4 0 14 -7 22 -15z
m244 -41 c0 -2 -11 2 -25 8 -14 6 -25 15 -25 20 0 5 11 1 25 -8 14 -9 25 -18
25 -20z m636 1 c-3 -8 -10 -15 -15 -15 -7 0 -6 10 1 26 12 26 25 16 14 -11z
m27 20 c-3 -9 -8 -14 -10 -11 -3 3 -2 9 2 15 9 16 15 13 8 -4z m40 -2 c4 10
17 17 29 16 15 0 18 -3 8 -6 -8 -4 -20 -13 -27 -22 -6 -9 -15 -13 -19 -9 -4 4
-13 3 -21 -4 -12 -10 -12 -7 -2 16 11 24 14 25 19 10 6 -16 7 -16 13 -1z m547
8 c0 -5 -7 -11 -14 -14 -10 -4 -13 -1 -9 9 6 15 23 19 23 5z m280 -1 c0 -5 -5
-10 -11 -10 -5 0 -7 5 -4 10 3 6 8 10 11 10 2 0 4 -4 4 -10z m-2510 -15 c0 -8
-2 -15 -4 -15 -2 0 -6 7 -10 15 -3 8 -1 15 4 15 6 0 10 -7 10 -15z m740 -5 c0
-5 -2 -10 -4 -10 -3 0 -8 5 -11 10 -3 6 -1 10 4 10 6 0 11 -4 11 -10z m285 0
c3 -5 1 -10 -4 -10 -6 0 -11 5 -11 10 0 6 2 10 4 10 3 0 8 -4 11 -10z m1455
-25 c8 -25 8 -40 0 -55 -15 -28 -21 -25 -10 5 8 20 6 25 -6 25 -11 0 -13 6 -9
21 5 15 4 19 -4 15 -12 -8 -15 6 -4 17 13 14 22 6 33 -28z m-1871 11 c10 -12
8 -13 -8 -9 -12 3 -21 9 -21 14 0 14 16 11 29 -5z m66 -6 c3 -5 2 -10 -4 -10
-5 0 -13 5 -16 10 -3 6 -2 10 4 10 5 0 13 -4 16 -10z m610 -21 c4 -6 5 -13 2
-15 -5 -6 -47 31 -47 41 0 8 38 -13 45 -26z m-765 11 c0 -5 -2 -10 -4 -10 -3
0 -8 5 -11 10 -3 6 -1 10 4 10 6 0 11 -4 11 -10z m665 0 c3 -6 -1 -7 -9 -4
-18 7 -21 14 -7 14 6 0 13 -4 16 -10z m-1315 -10 c0 -14 27 -13 32 2 3 8 9 8
22 1 16 -9 14 -11 -13 -16 -29 -6 -81 6 -81 18 0 3 9 5 20 5 11 0 20 -4 20
-10z m370 0 c0 -5 -2 -10 -4 -10 -3 0 -8 5 -11 10 -3 6 -1 10 4 10 6 0 11 -4
11 -10z m500 0 c0 -5 -2 -10 -4 -10 -3 0 -8 5 -11 10 -3 6 -1 10 4 10 6 0 11
-4 11 -10z m195 0 c3 -5 1 -10 -4 -10 -6 0 -11 5 -11 10 0 6 2 10 4 10 3 0 8
-4 11 -10z m748 -5 c-3 -9 -8 -14 -10 -11 -3 3 -2 9 2 15 9 16 15 13 8 -4z
m162 -9 c0 -13 -3 -22 -8 -19 -4 2 -10 -3 -13 -11 -3 -9 -13 -16 -21 -16 -10
0 -13 6 -9 16 3 9 6 20 6 25 0 5 10 14 23 19 12 5 22 9 22 9 0 1 0 -10 0 -23z
m-1035 4 c0 -5 -7 -7 -15 -4 -8 4 -15 8 -15 10 0 2 7 4 15 4 8 0 15 -4 15 -10z
m944 -5 c-4 -8 -8 -15 -10 -15 -2 0 -4 7 -4 15 0 8 4 15 10 15 5 0 7 -7 4 -15z
m-569 -5 c3 -6 -1 -7 -9 -4 -18 7 -21 14 -7 14 6 0 13 -4 16 -10z m309 -6 c3
-8 2 -12 -4 -9 -6 3 -10 10 -10 16 0 14 7 11 14 -7z m50 -71 c-4 -30 -11 -43
-19 -39 -7 2 -18 -1 -24 -7 -8 -8 -11 -2 -11 24 0 25 3 30 10 19 8 -12 10 -11
10 7 0 12 -8 24 -17 27 -10 3 -3 4 15 2 32 -3 33 -2 27 28 -5 29 -4 29 5 7 6
-14 8 -44 4 -68z m80 54 c7 -6 4 -7 -7 -3 -16 5 -18 1 -16 -37 2 -24 -1 -48
-5 -55 -4 -7 -4 -16 -1 -22 3 -5 1 -10 -4 -10 -6 0 -11 10 -11 21 0 12 -8 28
-17 35 -10 7 -14 16 -10 20 4 5 12 2 18 -6 6 -10 7 -4 3 18 -5 25 -2 37 12 51
12 11 21 14 23 7 2 -6 9 -15 15 -19z m-469 -7 c21 -23 8 -27 -21 -5 -10 8 -26
14 -34 14 -8 0 -2 -7 13 -15 39 -21 28 -28 -12 -8 -25 12 -30 19 -20 25 23 15
55 10 74 -11z m-88 -20 c10 0 25 -5 33 -11 13 -9 13 -10 0 -8 -29 3 -41 -1
-35 -11 4 -7 -3 -8 -21 -4 -18 5 -25 3 -20 -4 3 -6 23 -10 44 -10 20 1 48 -2
61 -6 18 -6 22 -5 16 4 -5 9 -4 11 4 6 6 -4 9 -11 6 -16 -3 -5 3 -13 12 -19
16 -9 16 -10 2 -11 -9 0 -22 7 -29 15 -7 8 -19 15 -27 15 -12 0 -12 -3 1 -16
23 -23 19 -27 -8 -9 -13 9 -41 17 -63 19 -34 2 -38 5 -36 27 1 13 0 18 -3 12
-8 -19 -89 -16 -104 2 -11 14 -10 14 14 5 15 -5 37 -10 49 -10 19 0 20 1 3 13
-15 11 -11 12 26 10 41 -3 42 -2 14 8 -21 9 -25 14 -15 20 8 5 23 2 36 -6 12
-8 30 -15 40 -15z m198 -8 c-3 -3 -11 0 -18 7 -9 10 -8 11 6 5 10 -3 15 -9 12
-12z m579 -12 c-2 -16 1 -30 6 -30 5 0 6 -8 3 -17 -6 -16 -5 -16 10 -4 16 13
17 12 8 -13 -6 -15 -7 -26 -1 -26 5 0 7 -12 6 -27 -3 -30 18 -58 35 -47 8 5 9
3 4 -7 -18 -32 -39 -49 -60 -49 -21 0 -70 -29 -49 -30 6 0 32 6 57 14 26 8 47
13 47 12 0 -1 -14 -18 -30 -36 -17 -19 -39 -48 -49 -66 -18 -31 -18 -31 0 -27
10 3 17 9 14 13 -2 4 4 16 15 27 10 12 16 24 13 27 -4 3 -1 6 6 6 7 0 19 7 28
15 8 8 19 12 25 8 7 -4 0 -16 -18 -31 -16 -13 -21 -22 -12 -19 12 4 15 2 12
-8 -3 -8 -14 -17 -25 -20 -28 -9 -25 -37 4 -33 13 2 21 9 19 18 -2 8 0 12 3 8
4 -4 16 -3 26 3 14 7 17 6 13 -5 -4 -11 -76 -51 -94 -51 -3 0 -11 -4 -18 -9
-7 -4 -19 -5 -27 -2 -8 3 -15 1 -15 -4 0 -6 6 -10 13 -11 10 0 10 -2 0 -6 -7
-2 -13 -11 -13 -19 0 -9 5 -13 13 -9 6 4 4 0 -7 -9 -10 -8 -15 -20 -10 -27 4
-7 -1 -18 -12 -27 -16 -13 -17 -14 -1 -9 18 7 24 -8 7 -18 -20 -13 -9 -25 18
-20 l27 6 -30 -14 -30 -15 25 -10 25 -11 -25 -1 c-14 0 -20 -4 -15 -8 14 -10
17 -32 4 -32 -8 0 -8 -5 1 -15 10 -12 10 -15 -4 -15 -9 0 -16 -5 -16 -11 0 -7
11 -4 26 6 15 9 23 12 20 6 -4 -6 0 -11 11 -12 10 0 -4 -7 -32 -16 -27 -8 -58
-22 -67 -30 -10 -9 -18 -12 -18 -7 0 5 -15 15 -32 22 -26 10 -30 14 -19 21 12
8 12 12 2 25 -11 14 -11 16 4 16 12 0 15 5 10 18 -7 16 -18 66 -31 136 -2 15
-11 43 -18 61 -8 19 -12 36 -8 39 3 3 0 6 -7 6 -7 0 -9 5 -5 13 6 9 5 9 -7 0
-9 -7 -26 -11 -38 -8 -34 6 -141 59 -141 69 0 4 7 5 16 2 8 -3 12 -2 9 4 -3 6
-21 10 -38 11 -32 0 -84 17 -59 18 7 1 10 6 7 11 -9 14 1 12 37 -6 16 -9 27
-11 24 -5 -10 15 7 14 22 -1 7 -7 12 -8 12 -2 0 5 -14 17 -31 26 -16 10 -27
13 -23 7 10 -17 -37 0 -68 25 -15 12 -29 28 -33 36 -3 8 7 3 22 -13 32 -30 53
-37 32 -9 -13 15 -12 16 3 3 10 -7 15 -17 12 -22 -3 -5 2 -9 11 -9 12 0 15 5
11 16 -5 14 -4 15 8 5 16 -14 40 -6 31 10 -10 15 7 10 27 -8 19 -17 25 -39 8
-28 -12 7 -12 3 -4 -19 3 -9 13 -16 21 -16 10 0 13 6 9 16 -4 11 -2 15 8 11
18 -7 30 37 17 61 -10 16 -10 16 -11 0 0 -20 -15 -24 -25 -7 -9 14 27 47 45
41 13 -5 13 -3 0 13 -14 17 -14 17 6 7 12 -6 24 -21 27 -32 5 -18 3 -19 -10
-9 -10 9 -7 -1 7 -29 23 -45 36 -55 27 -22 -7 28 9 34 26 10 14 -20 14 -20 15
7 1 67 5 83 19 83 10 0 13 -6 8 -17 -4 -10 -9 -36 -13 -57 -4 -32 -2 -37 9
-31 11 7 12 6 3 -6 -16 -20 -24 -59 -13 -59 6 0 9 -8 7 -17 -2 -14 4 -18 24
-18 14 0 30 -3 34 -7 4 -5 1 -8 -6 -8 -7 0 -11 -2 -9 -5 3 -2 23 2 44 9 42 15
54 44 25 58 -11 5 -9 7 6 7 30 1 40 31 11 32 -12 1 -26 1 -30 0 -5 -1 -5 4 -2
10 4 6 18 9 31 6 17 -3 24 1 26 17 2 11 14 26 28 33 14 7 18 13 10 13 -8 0
-33 -9 -55 -20 -24 -13 -32 -14 -20 -5 11 9 20 20 20 25 0 4 3 12 8 16 16 17
5 26 -12 9 -19 -16 -20 -16 -18 3 0 11 5 18 10 15 5 -3 6 4 2 16 -6 21 3 26
48 22 12 -2 17 5 17 20 0 18 -3 20 -12 11 -7 -7 -18 -12 -26 -12 -11 0 -11 2
0 14 8 7 20 32 28 55 15 48 29 54 24 11z m256 20 c0 -5 -5 -10 -11 -10 -5 0
-7 5 -4 10 3 6 8 10 11 10 2 0 4 -4 4 -10z m-302 -46 c-11 -19 -22 -33 -25
-31 -7 8 30 76 38 71 4 -2 -1 -20 -13 -40z m-584 28 c3 -5 -8 -6 -25 -4 -16 2
-29 6 -29 8 0 8 49 4 54 -4z m414 -23 c-3 -8 -7 -3 -11 10 -4 17 -3 21 5 13 5
-5 8 -16 6 -23z m145 -1 c-13 -26 -18 -29 -21 -15 -4 19 14 47 29 47 5 0 2
-15 -8 -32z m247 23 c0 -5 -6 -12 -12 -14 -7 -3 -4 -6 7 -6 19 -1 24 -20 16
-63 0 -4 -14 -6 -29 -6 -31 1 -35 14 -18 71 7 25 36 39 36 18z m283 -15 c3 -7
0 -19 -6 -25 -9 -9 -9 -14 0 -19 8 -5 8 -17 -2 -45 -11 -31 -10 -37 2 -37 11
0 11 -4 3 -20 -6 -11 -16 -20 -22 -20 -6 0 -7 5 -2 13 5 7 1 5 -8 -5 -9 -10
-18 -24 -21 -31 -2 -6 -7 -9 -11 -6 -4 4 0 26 8 50 9 25 11 45 6 47 -5 2 0 13
11 25 11 12 19 31 18 42 -2 33 0 45 10 45 5 0 11 -6 14 -14z m177 2 c0 -19
-18 -44 -25 -36 -4 3 0 15 7 27 15 24 18 26 18 9z m-2263 -14 c-3 -3 -12 -4
-19 -1 -8 3 -5 6 6 6 11 1 17 -2 13 -5z m2318 -24 c-9 -14 -45 -32 -45 -23 0
7 24 22 48 32 2 0 0 -3 -3 -9z m-1464 -15 c19 -8 27 -14 19 -14 -26 -1 -60 11
-60 20 0 12 2 12 41 -6z m409 -1 c0 -8 -4 -12 -10 -9 -5 3 -10 10 -10 16 0 5
5 9 10 9 6 0 10 -7 10 -16z m-500 -4 c0 -5 -12 -10 -27 -9 -25 0 -26 1 -8 9
27 12 35 12 35 0z m559 -38 c6 -20 6 -32 0 -32 -10 0 -14 8 -24 55 -9 40 12
21 24 -23z m21 38 c0 -5 -2 -10 -4 -10 -3 0 -8 5 -11 10 -3 6 -1 10 4 10 6 0
11 -4 11 -10z m64 -52 c-8 -15 -14 -34 -14 -42 0 -19 -13 -27 -28 -17 -9 5 -9
15 1 42 6 18 15 36 18 39 3 3 9 14 13 25 l8 20 8 -20 c4 -12 2 -31 -6 -47z
m-547 32 c17 -4 43 -5 57 -3 15 3 26 1 26 -6 0 -6 -19 -11 -45 -11 -27 0 -45
-5 -45 -11 0 -8 13 -9 43 -4 56 11 102 9 124 -5 16 -10 16 -11 -4 -7 -31 7
-19 -19 15 -32 23 -8 20 -9 -18 -5 -43 4 -44 4 -15 -7 28 -11 48 -29 40 -37
-2 -2 -23 7 -47 21 -25 14 -69 28 -99 32 -63 9 -105 23 -95 32 4 4 -4 13 -16
20 -22 13 -21 13 12 7 l35 -7 -25 22 -25 22 25 -7 c14 -4 39 -10 57 -14z m193
-26 c0 -9 -37 15 -51 33 -10 12 -5 11 19 -6 17 -12 32 -24 32 -27z m1255 16
c-3 -5 -1 -10 4 -10 6 0 11 -7 11 -15 0 -8 4 -15 9 -15 16 0 6 -29 -20 -56
l-24 -27 33 17 c18 9 32 12 32 6 0 -5 -4 -10 -9 -10 -6 0 -8 -9 -6 -20 3 -14
-2 -20 -16 -20 -10 0 -19 -4 -19 -8 0 -5 -6 -9 -12 -9 -7 0 -20 -4 -29 -7 -29
-13 -30 22 -1 44 21 17 23 23 12 30 -11 7 -11 11 -1 24 7 9 17 14 21 11 4 -3
13 1 19 9 9 11 5 13 -20 10 -27 -3 -30 -2 -19 11 7 8 9 15 5 15 -4 0 -2 7 5
15 14 17 35 21 25 5z m-1055 -37 c0 -13 -3 -13 -15 -3 -8 7 -15 19 -15 27 0
13 3 13 15 3 8 -7 15 -19 15 -27z m-100 7 c6 -11 9 -20 7 -20 -2 0 -12 9 -22
20 -10 11 -13 20 -7 20 6 0 16 -9 22 -20z m732 -2 c-7 -7 -12 -8 -12 -2 0 6 3
14 7 17 3 4 9 5 12 2 2 -3 -1 -11 -7 -17z m-797 2 c3 -6 -1 -7 -9 -4 -18 7
-21 14 -7 14 6 0 13 -4 16 -10z m679 -11 c20 -10 29 -9 43 2 15 12 16 12 10
-5 -6 -14 -4 -17 8 -12 8 3 15 0 15 -7 -1 -15 -24 -47 -36 -47 -4 0 -3 5 4 12
19 19 14 31 -13 26 -13 -3 -22 -1 -19 3 3 5 -6 13 -20 19 -14 5 -26 12 -26 15
0 7 6 6 34 -6z m-564 -24 c11 -13 10 -14 -4 -9 -9 3 -16 10 -16 15 0 13 6 11
20 -6z m-555 -15 c3 -5 1 -10 -4 -10 -6 0 -11 5 -11 10 0 6 2 10 4 10 3 0 8
-4 11 -10z m95 -11 c0 7 5 9 12 5 23 -14 46 -12 40 4 -4 12 -1 13 13 5 10 -6
25 -9 34 -8 9 1 10 0 3 -2 -12 -5 -11 -22 7 -80 5 -18 7 -33 4 -33 -3 0 0 -7
7 -15 16 -19 84 -158 82 -167 -1 -5 1 -8 6 -8 4 0 25 -16 47 -35 22 -19 48
-37 58 -41 9 -3 17 -10 17 -15 0 -5 11 -9 24 -9 13 0 26 -5 28 -11 2 -5 24
-10 48 -11 25 0 50 -5 57 -10 7 -5 22 -7 34 -3 14 5 19 4 15 -4 -12 -19 -17
-101 -6 -101 18 0 11 -50 -7 -57 -10 -4 -21 -11 -25 -17 -4 -6 -10 -7 -14 -3
-4 4 -2 13 4 19 21 21 13 31 -18 25 -16 -4 -29 -3 -29 1 3 20 -2 32 -15 32 -8
0 -18 9 -21 20 -4 11 -10 18 -14 15 -5 -2 -18 7 -31 20 -13 13 -27 22 -31 19
-5 -3 -6 3 -2 12 5 14 3 16 -12 10 -11 -4 -16 -4 -12 0 7 8 -16 23 -75 50 -21
9 -36 19 -33 23 2 4 -18 31 -45 60 -28 30 -50 57 -50 62 0 5 -6 9 -14 9 -8 0
-17 9 -21 19 -3 11 -13 22 -22 25 -14 6 -14 8 3 21 12 9 13 13 4 10 -8 -2 -26
5 -40 16 -23 19 -23 20 -4 16 17 -3 20 1 20 23 0 19 -4 26 -13 23 -11 -4 -11
-8 -1 -22 9 -11 6 -10 -9 3 -13 10 -20 23 -17 27 3 5 -2 9 -10 9 -8 0 -18 5
-22 11 -4 7 5 9 29 6 33 -4 35 -3 24 14 -6 10 -21 23 -34 30 -12 7 -20 16 -17
21 3 5 15 2 25 -8 12 -11 19 -13 19 -5z m391 6 c33 -14 33 -14 8 -15 -15 0
-32 7 -39 15 -16 19 -11 19 31 0z m-601 -5 c12 -8 9 -10 -12 -10 -15 0 -30 5
-33 10 -8 13 25 13 45 0z m456 -26 c12 -8 34 -14 50 -12 15 2 29 -2 31 -9 3
-9 -7 -13 -30 -13 -19 0 -40 -7 -47 -15 -7 -8 -16 -15 -21 -15 -16 0 -5 25 16
37 19 11 18 12 -10 18 -17 4 -48 13 -70 21 l-40 14 49 -6 c27 -3 59 -12 72
-20z m-561 -19 c18 -13 18 -14 3 -15 -19 0 -60 35 -51 44 3 2 10 0 17 -5 6 -5
20 -16 31 -24z m71 8 c-6 -6 -36 9 -36 18 0 5 9 4 20 -3 10 -7 18 -14 16 -15z
m135 -3 c6 0 7 5 4 10 -11 18 7 10 26 -12 25 -28 24 -36 -1 -13 -14 13 -20 14
-20 5 0 -9 -6 -8 -20 5 -11 10 -16 23 -12 29 4 7 8 5 10 -6 2 -10 8 -18 13
-18z m-145 -41 c-2 -16 1 -29 8 -30 6 0 1 -5 -12 -11 -17 -9 -26 -8 -35 1 -10
11 -7 12 13 7 21 -6 22 -5 7 4 -9 6 -22 8 -28 5 -5 -4 -16 -1 -24 5 -19 15
-21 37 -2 23 6 -6 22 -13 34 -16 20 -4 22 -1 19 23 -2 20 1 27 10 23 8 -3 12
-16 10 -34z m1438 16 c-6 -16 -24 -21 -24 -7 0 11 11 22 21 22 5 0 6 -7 3 -15z
m-1867 -1 c-3 -3 -12 -4 -19 -1 -8 3 -5 6 6 6 11 1 17 -2 13 -5z m1741 -2 c7
7 12 9 12 6 0 -14 -90 -67 -96 -57 -3 6 -3 13 0 16 3 4 6 1 6 -5 0 -7 9 -3 20
8 12 12 18 26 14 31 -4 8 -1 8 13 0 14 -7 23 -7 31 1z m-1418 -18 c0 -2 -7 -4
-15 -4 -8 0 -15 4 -15 10 0 5 7 7 15 4 8 -4 15 -8 15 -10z m1480 -4 c-6 -11
-15 -20 -21 -20 -6 0 -6 7 1 20 6 11 15 20 21 20 6 0 6 -7 -1 -20z m-1647 3
c-7 -2 -19 -2 -25 0 -7 3 -2 5 12 5 14 0 19 -2 13 -5z m2124 1 c-3 -3 -12 -4
-19 -1 -8 3 -5 6 6 6 11 1 17 -2 13 -5z m-2184 -11 c-7 -2 -19 -2 -25 0 -7 3
-2 5 12 5 14 0 19 -2 13 -5z m164 1 c-3 -3 -12 -4 -19 -1 -8 3 -5 6 6 6 11 1
17 -2 13 -5z m344 -12 c17 -15 19 -21 9 -27 -8 -5 -11 -4 -6 3 4 6 -5 18 -21
26 -15 8 -23 15 -17 16 7 0 22 -8 35 -18z m293 8 c14 -5 26 -16 26 -25 0 -22
-13 -19 -40 10 -26 28 -24 30 14 15z m-889 -20 c19 -8 19 -9 -2 -9 -12 -1 -25
4 -28 9 -7 12 2 12 30 0z m220 -18 c18 -10 17 -11 -12 -9 -18 1 -33 5 -33 9 0
3 -8 9 -17 11 -10 3 -4 4 12 3 17 -1 39 -7 50 -14z m91 4 c3 -8 13 -13 22 -10
9 3 6 -1 -7 -8 -19 -10 -25 -9 -35 4 -6 9 -20 18 -31 21 -13 3 -8 5 13 6 20 1
35 -5 38 -13z m1472 1 c-18 -14 -8 -45 11 -33 7 5 9 1 5 -8 -3 -9 -11 -16 -17
-16 -6 0 -7 -3 -4 -7 4 -3 -1 -15 -10 -26 -17 -20 -17 -20 1 -13 15 5 17 4 7
-8 -6 -8 -20 -12 -30 -9 -17 4 -17 7 -5 21 8 10 14 21 13 26 0 5 5 12 12 16 9
6 9 12 -4 24 -12 13 -22 14 -44 6 -25 -9 -26 -9 -10 4 18 14 18 15 0 19 -10 2
-4 3 12 1 17 -2 37 1 45 6 22 14 38 11 18 -3z m-1805 -14 c-7 -2 -19 -2 -25 0
-7 3 -2 5 12 5 14 0 19 -2 13 -5z m75 -14 c-18 -10 -65 1 -48 11 6 4 23 5 37
2 19 -4 22 -7 11 -13z m428 -10 c4 -8 1 -8 -14 0 -12 6 -24 16 -28 22 -4 8 -1
8 14 0 12 -6 24 -16 28 -22z m-339 15 c-3 -3 -12 -4 -19 -1 -8 3 -5 6 6 6 11
1 17 -2 13 -5z m-40 -10 c-3 -3 -12 -4 -19 -1 -8 3 -5 6 6 6 11 1 17 -2 13 -5z
m203 -10 c9 -10 -25 -24 -45 -19 -44 12 -85 15 -85 5 0 -19 -16 -10 -17 9 -2
18 4 19 70 15 40 -3 74 -8 77 -10z m1666 7 c-4 -5 0 -11 6 -14 7 -2 2 -8 -12
-11 -16 -5 -36 -1 -55 9 l-30 17 32 -6 c18 -3 35 -1 38 4 3 6 11 10 16 10 6 0
8 -4 5 -9z m-296 -21 c-24 -15 -36 -11 -14 4 10 8 21 12 24 10 2 -3 -2 -9 -10
-14z m-1584 -7 c30 -4 41 -10 40 -22 -1 -12 8 -16 37 -17 21 -1 44 -7 50 -13
9 -10 1 -11 -38 -5 -27 4 -52 10 -55 14 -3 4 -30 19 -60 34 -30 15 -46 24 -35
21 10 -3 38 -9 61 -12z m544 13 c0 -11 -19 -15 -25 -6 -3 5 1 10 9 10 9 0 16
-2 16 -4z m-416 -21 c16 -12 17 -15 4 -15 -8 0 -21 7 -28 15 -16 19 -1 19 24
0z m171 -6 c15 -15 -28 -10 -55 6 -25 14 -25 14 10 8 19 -3 39 -10 45 -14z
m755 10 c0 -6 -7 -9 -14 -6 -10 4 -13 1 -9 -9 3 -7 1 -14 -4 -14 -17 0 -23 13
-12 27 14 16 39 17 39 2z m785 -9 c4 -6 -5 -10 -19 -10 -14 0 -26 5 -26 10 0
6 9 10 19 10 11 0 23 -4 26 -10z m-1770 -10 c3 -5 1 -10 -4 -10 -6 0 -11 5
-11 10 0 6 2 10 4 10 3 0 8 -4 11 -10z m181 -9 c-3 -5 15 -8 41 -7 36 1 48 -3
57 -19 6 -11 15 -23 20 -26 5 -4 -1 -10 -13 -14 -12 -3 -19 -11 -16 -16 7 -10
-8 -12 -19 -2 -11 11 -48 14 -41 3 9 -14 -52 -1 -94 20 l-33 17 30 0 c17 0 29
-4 26 -8 -2 -4 4 -7 13 -7 10 0 23 0 28 -2 6 -1 17 -2 25 -1 12 1 12 4 -3 15
-16 12 -16 14 7 14 18 0 23 -5 21 -18 -3 -13 2 -16 16 -13 10 3 19 10 19 15 0
6 -7 7 -16 4 -8 -3 -12 -2 -9 4 10 16 -33 32 -54 20 -28 -15 -58 -12 -65 5 -6
17 9 21 19 5 10 -16 35 -12 29 5 -4 8 -1 15 6 15 6 0 9 -4 6 -9z m1480 -6 c-4
-10 1 -15 14 -15 11 0 20 5 20 10 0 6 5 10 10 10 16 0 -12 -38 -32 -43 -10 -3
-16 -1 -12 4 3 5 0 9 -5 9 -6 0 -11 -4 -11 -10 0 -5 -10 -10 -21 -10 -20 0
-20 2 7 29 34 34 38 36 30 16z m-116 -10 c-6 -8 -9 -19 -5 -25 3 -5 1 -10 -4
-10 -6 0 -11 5 -11 11 0 5 -4 7 -10 4 -5 -3 -10 -2 -10 3 0 5 10 14 23 20 30
14 31 14 17 -3z m210 6 c0 -6 -4 -13 -10 -16 -5 -3 -10 1 -10 9 0 9 5 16 10
16 6 0 10 -4 10 -9z m-2130 -41 c0 -5 -5 -10 -11 -10 -5 0 -7 5 -4 10 3 6 8
10 11 10 2 0 4 -4 4 -10z m440 0 c13 -9 13 -10 0 -10 -8 0 -22 5 -30 10 -13 9
-13 10 0 10 8 0 22 -5 30 -10z m1430 -20 c0 -13 -5 -18 -15 -14 -12 5 -13 10
-4 20 15 19 19 18 19 -6z m30 0 c0 -5 -4 -10 -10 -10 -5 0 -10 5 -10 10 0 6 5
10 10 10 6 0 10 -4 10 -10z m-1454 -15 c14 -13 13 -15 -4 -15 -10 0 -19 7 -19
15 0 8 2 15 4 15 3 0 11 -7 19 -15z m268 -34 c-3 -3 -15 6 -27 18 l-22 24 27
-19 c14 -10 24 -21 22 -23z m1379 22 c-7 -3 -13 -12 -14 -21 0 -13 -2 -13 -8
3 -6 14 -4 22 8 26 9 4 18 4 21 1 3 -2 -1 -7 -7 -9z m-1593 -3 c0 -5 -4 -10
-10 -10 -5 0 -10 5 -10 10 0 6 5 10 10 10 6 0 10 -4 10 -10z m350 -40 c-8 -5
-19 -10 -25 -10 -5 0 -3 5 5 10 8 5 20 10 25 10 6 0 3 -5 -5 -10z m-105 -10
c3 -5 2 -10 -4 -10 -5 0 -13 5 -16 10 -3 6 -2 10 4 10 5 0 13 -4 16 -10z
m-665 -14 c0 -3 -4 -8 -10 -11 -5 -3 -10 -1 -10 4 0 6 5 11 10 11 6 0 10 -2
10 -4z m904 -29 c-21 -12 -30 -1 -14 18 10 13 15 13 21 3 5 -8 2 -16 -7 -21z
m-861 16 c-7 -2 -19 -2 -25 0 -7 3 -2 5 12 5 14 0 19 -2 13 -5z m657 -8 c6 -8
9 -18 6 -24 -3 -5 -3 -11 1 -14 5 -2 2 -2 -5 0 -8 1 -20 3 -28 3 -9 0 -12 5
-9 11 4 6 13 8 21 5 8 -3 14 0 14 5 0 6 -9 9 -19 6 -12 -3 -22 1 -25 9 -7 19
28 18 44 -1z m120 -20 c0 -11 -19 -4 -41 15 l-24 21 33 -16 c17 -8 32 -18 32
-20z m-453 -21 c-3 -3 -12 -4 -19 -1 -8 3 -5 6 6 6 11 1 17 -2 13 -5z m1340 0
c-3 -3 -12 -4 -19 -1 -8 3 -5 6 6 6 11 1 17 -2 13 -5z m-1232 -21 c-31 -8 -45
-27 -15 -20 81 17 90 18 90 8 0 -6 -9 -11 -19 -11 -11 0 -22 -4 -26 -9 -7 -13
41 -18 83 -10 40 9 80 0 60 -12 -9 -6 -7 -9 9 -9 22 0 36 -13 39 -38 2 -8 -4
-11 -16 -7 -9 3 -30 1 -45 -5 -29 -11 -69 -5 -60 10 3 5 -1 10 -7 13 -7 2 5
13 27 25 51 27 44 27 -23 2 -54 -21 -107 -27 -98 -11 8 13 -22 22 -49 15 -13
-3 -32 -1 -42 5 -15 9 -13 10 12 6 27 -6 26 -4 -10 14 -32 15 -36 20 -17 20
12 1 22 6 22 11 0 6 23 9 53 9 28 -1 43 -3 32 -6z m285 -14 c22 -12 40 -23 40
-25 0 -10 -50 -3 -62 9 -7 7 -22 18 -33 25 -38 22 11 14 55 -9z m-625 1 c3 -6
-1 -7 -9 -4 -18 7 -21 14 -7 14 6 0 13 -4 16 -10z m780 -10 c3 -6 -1 -7 -9 -4
-18 7 -21 14 -7 14 6 0 13 -4 16 -10z m-860 -10 c3 -5 2 -10 -4 -10 -5 0 -13
5 -16 10 -3 6 -2 10 4 10 5 0 13 -4 16 -10z m126 3 c-11 -5 -11 -7 0 -14 11
-7 10 -9 -3 -9 -10 0 -18 -5 -18 -10 0 -6 -11 -8 -25 -6 -14 3 -25 1 -25 -4 0
-9 -38 -2 -44 9 -2 3 12 7 31 8 19 1 44 9 56 17 12 8 27 15 32 15 6 0 4 -3 -4
-6z m756 -29 c0 -7 -8 -12 -18 -11 -10 1 -16 4 -13 8 2 4 -2 10 -8 12 -7 3 -1
5 13 4 14 -1 26 -7 26 -13z m-122 -4 c8 -13 -5 -13 -25 0 -13 8 -13 10 2 10 9
0 20 -4 23 -10z m1135 -12 c0 -18 -2 -20 -9 -8 -6 8 -7 18 -5 22 9 14 14 9 14
-14z m-330 -8 c0 -5 -7 -10 -16 -10 -8 0 -12 5 -9 10 3 6 10 10 16 10 5 0 9
-4 9 -10z m-1485 -49 c-3 -6 -11 -11 -17 -11 -6 0 -6 6 2 15 14 17 26 13 15
-4z m85 -9 c0 -5 -16 -16 -35 -25 -44 -21 -46 -13 -2 13 37 23 37 23 37 12z
m415 -2 c-3 -5 -12 -10 -18 -10 -7 0 -6 4 3 10 19 12 23 12 15 0z m-208 -30
c-33 -16 -65 -37 -73 -47 -14 -17 -15 -17 -5 2 27 51 57 72 105 73 28 1 25 -2
-27 -28z m-117 9 c0 -4 -11 -16 -24 -27 -28 -22 -20 -48 13 -39 12 3 24 0 28
-5 3 -6 1 -8 -5 -4 -6 3 -13 2 -16 -3 -4 -5 -2 -12 4 -16 15 -9 13 -48 -2 -42
-7 2 -12 14 -10 27 1 15 -4 24 -18 27 -21 6 -32 32 -28 69 2 16 9 21 30 21 15
0 28 -4 28 -8z m1000 7 c0 -3 -4 -8 -10 -11 -5 -3 -10 -1 -10 4 0 6 5 11 10
11 6 0 10 -2 10 -4z m305 -14 c-3 -3 -11 0 -18 7 -9 10 -8 11 6 5 10 -3 15 -9
12 -12z m-425 -22 c-20 -13 -33 -13 -25 0 3 6 14 10 23 10 15 0 15 -2 2 -10z
m-754 -22 c4 -7 3 -8 -5 -4 -6 4 -20 2 -29 -6 -15 -12 -16 -11 -3 5 16 20 27
22 37 5z m1189 2 c3 -5 -1 -10 -10 -10 -9 0 -13 5 -10 10 3 6 8 10 10 10 2 0
7 -4 10 -10z m-1271 -54 c-21 -15 -30 -14 -19 3 3 6 14 11 23 11 13 0 13 -2
-4 -14z m836 4 c0 -5 -7 -10 -15 -10 -8 0 -15 5 -15 10 0 6 7 10 15 10 8 0 15
-4 15 -10z m-797 -15 c-3 -9 -8 -14 -10 -11 -3 3 -2 9 2 15 9 16 15 13 8 -4z
m827 -9 c0 -2 -13 -9 -30 -15 -35 -12 -41 -5 -7 9 25 10 37 12 37 6z m-1567
-13 c-7 -2 -19 -2 -25 0 -7 3 -2 5 12 5 14 0 19 -2 13 -5z m1592 -13 c3 -5 -1
-10 -10 -10 -9 0 -13 5 -10 10 3 6 8 10 10 10 2 0 7 -4 10 -10z m-1387 -7
c-10 -2 -26 -2 -35 0 -10 3 -2 5 17 5 19 0 27 -2 18 -5z m1297 -23 c-21 -23
-47 -27 -39 -6 3 8 15 17 27 19 12 2 24 5 26 6 2 0 -4 -8 -14 -19z m-1052 -17
c-7 -2 -19 -2 -25 0 -7 3 -2 5 12 5 14 0 19 -2 13 -5z m-50 -10 c-7 -2 -19 -2
-25 0 -7 3 -2 5 12 5 14 0 19 -2 13 -5z m1040 -10 c-3 -7 -9 -10 -14 -7 -14 8
-11 21 5 21 8 0 12 -6 9 -14z m-1153 -17 c0 -2 -13 -6 -29 -8 -17 -2 -28 -1
-25 4 5 8 54 12 54 4z m1515 -13 c-1 -10 2 -24 8 -30 14 -19 -3 -16 -25 3 -17
16 -17 18 0 30 22 17 21 17 17 -3z m-1698 -39 c-3 -3 -12 -4 -19 -1 -8 3 -5 6
6 6 11 1 17 -2 13 -5z m690 -10 c-3 -3 -12 -4 -19 -1 -8 3 -5 6 6 6 11 1 17
-2 13 -5z m1223 2 c0 -2 -8 -10 -17 -17 -16 -13 -17 -12 -4 4 13 16 21 21 21
13z m-1517 -23 c-13 -2 -33 -2 -45 0 -13 2 -3 4 22 4 25 0 35 -2 23 -4z m424
-89 c-3 -3 -12 -4 -19 -1 -8 3 -5 6 6 6 11 1 17 -2 13 -5z m-67 -89 c-19 -7
-42 -13 -50 -13 -8 0 1 6 20 13 19 7 42 13 50 13 8 0 -1 -6 -20 -13z m-100
-30 c-19 -7 -42 -13 -50 -13 -8 0 1 6 20 13 19 7 42 13 50 13 8 0 -1 -6 -20
-13z m280 -20 c0 -2 -13 -11 -30 -20 -38 -19 -40 -11 -2 9 31 17 32 18 32 11z
m2800 -916 c0 -11 -4 -17 -10 -14 -5 3 -10 13 -10 21 0 8 5 14 10 14 6 0 10
-9 10 -21z m-1200 -5 c0 -9 -5 -14 -12 -12 -18 6 -21 28 -4 28 9 0 16 -7 16
-16z m1240 -40 c0 -13 -21 -44 -30 -44 -14 0 -12 18 3 35 12 15 27 20 27 9z
m-1240 -28 c0 -3 -4 -8 -10 -11 -5 -3 -10 -1 -10 4 0 6 5 11 10 11 6 0 10 -2
10 -4z m-1111 -152 c-6 -8 -17 -14 -23 -13 -7 0 -6 2 2 6 6 2 12 11 12 19 0 9
5 12 10 9 8 -5 7 -11 -1 -21z m98 0 c-3 -3 -12 -4 -19 -1 -8 3 -5 6 6 6 11 1
17 -2 13 -5z m-822 -34 c3 -6 -1 -7 -9 -4 -18 7 -21 14 -7 14 6 0 13 -4 16
-10z"/>
<path d="M1910 3420 c0 -5 5 -10 10 -10 6 0 10 5 10 10 0 6 -4 10 -10 10 -5 0
-10 -4 -10 -10z"/>
<path d="M715 3250 c-3 -6 1 -7 9 -4 9 3 23 -1 32 -11 9 -9 19 -13 23 -10 7 8
-28 35 -45 35 -7 0 -16 -4 -19 -10z"/>
<path d="M1025 3230 c3 -5 8 -10 11 -10 2 0 4 5 4 10 0 6 -5 10 -11 10 -5 0
-7 -4 -4 -10z"/>
<path d="M1255 3190 c3 -5 11 -10 16 -10 6 0 7 5 4 10 -3 6 -11 10 -16 10 -6
0 -7 -4 -4 -10z"/>
<path d="M2585 2750 c-3 -5 -1 -10 4 -10 6 0 11 5 11 10 0 6 -2 10 -4 10 -3 0
-8 -4 -11 -10z"/>
<path d="M2066 2473 c-6 -14 -5 -15 5 -6 7 7 10 15 7 18 -3 3 -9 -2 -12 -12z"/>
<path d="M2090 2434 c0 -8 5 -12 10 -9 6 3 10 10 10 16 0 5 -4 9 -10 9 -5 0
-10 -7 -10 -16z"/>
<path d="M1812 2330 c0 -14 2 -19 5 -12 2 6 2 18 0 25 -3 6 -5 1 -5 -13z"/>
<path d="M2070 2270 c-9 -6 -10 -10 -3 -10 6 0 15 5 18 10 8 12 4 12 -15 0z"/>
<path d="M2032 2223 c-24 -9 -1 -22 23 -13 16 6 25 6 25 -1 0 -5 -10 -13 -22
-18 -17 -6 -18 -9 -5 -14 9 -3 18 0 21 8 3 8 12 12 21 9 19 -8 19 0 -1 20 -15
16 -37 19 -62 9z"/>
<path d="M1850 2210 c0 -5 5 -10 11 -10 5 0 7 5 4 10 -3 6 -8 10 -11 10 -2 0
-4 -4 -4 -10z"/>
<path d="M2000 2140 c0 -5 5 -10 11 -10 5 0 7 5 4 10 -3 6 -8 10 -11 10 -2 0
-4 -4 -4 -10z"/>
<path d="M2270 2540 c-8 -5 -12 -12 -9 -15 4 -3 12 1 19 10 14 17 11 19 -10 5z"/>
<path d="M1375 2450 c-32 -8 -30 -9 60 -16 31 -2 44 0 35 5 -25 14 -63 19 -95
11z"/>
<path d="M1700 1850 c0 -5 5 -10 11 -10 5 0 7 5 4 10 -3 6 -8 10 -11 10 -2 0
-4 -4 -4 -10z"/>
<path d="M835 1900 c3 -5 11 -10 16 -10 6 0 7 5 4 10 -3 6 -11 10 -16 10 -6 0
-7 -4 -4 -10z"/>
<path d="M910 1870 c8 -5 24 -10 34 -10 26 0 18 6 -19 14 -22 5 -26 4 -15 -4z"/>
<path d="M1035 1830 c-3 -5 3 -10 15 -10 12 0 18 5 15 10 -3 6 -10 10 -15 10
-5 0 -12 -4 -15 -10z"/>
<path d="M845 1760 c-3 -6 1 -7 9 -4 18 7 21 14 7 14 -6 0 -13 -4 -16 -10z"/>
<path d="M357 3752 c-19 -20 -23 -37 -7 -27 6 3 10 2 10 -3 0 -6 7 -13 16 -16
8 -3 12 -2 9 4 -3 6 0 10 8 10 10 0 13 8 9 25 -5 30 -22 32 -45 7z"/>
<path d="M3535 3480 c-4 -6 -11 -8 -16 -5 -5 4 -9 2 -9 -4 0 -16 32 -29 63
-26 37 4 38 6 22 28 -8 12 -15 14 -20 8 -3 -6 -1 -11 4 -11 23 0 10 -15 -14
-16 -21 -2 -23 1 -14 17 10 20 -4 28 -16 9z"/>
<path d="M316 3452 c-3 -6 -1 -14 5 -17 14 -9 20 -2 10 14 -6 8 -11 9 -15 3z"/>
<path d="M3584 3385 c-10 -8 -14 -15 -8 -15 6 0 17 7 24 15 16 19 9 19 -16 0z"/>
<path d="M288 3373 c7 -3 16 -2 19 1 4 3 -2 6 -13 5 -11 0 -14 -3 -6 -6z"/>
<path d="M3508 3333 c7 -3 16 -2 19 1 4 3 -2 6 -13 5 -11 0 -14 -3 -6 -6z"/>
<path d="M3475 3310 c-3 -5 -1 -10 4 -10 6 0 11 5 11 10 0 6 -2 10 -4 10 -3 0
-8 -4 -11 -10z"/>
<path d="M3615 3310 c3 -5 10 -10 16 -10 5 0 9 5 9 10 0 6 -7 10 -16 10 -8 0
-12 -4 -9 -10z"/>
<path d="M3340 3290 c-23 -7 -23 -8 -3 -9 12 -1 25 4 28 9 3 6 5 10 3 9 -2 -1
-14 -5 -28 -9z"/>
<path d="M3478 3283 c6 -2 18 -2 25 0 6 3 1 5 -13 5 -14 0 -19 -2 -12 -5z"/>
<path d="M3580 3275 c7 -9 15 -13 17 -11 7 7 -7 26 -19 26 -6 0 -6 -6 2 -15z"/>
<path d="M3302 3238 c-17 -17 -15 -29 3 -22 8 4 13 10 10 14 -3 5 5 11 17 13
21 4 21 4 3 6 -12 0 -26 -4 -33 -11z"/>
<path d="M3339 3221 c11 -7 10 -10 -5 -14 -12 -3 -6 -5 14 -6 33 -1 43 12 16
23 -24 9 -41 7 -25 -3z"/>
<path d="M3240 3210 c0 -5 7 -10 16 -10 8 0 12 5 9 10 -3 6 -10 10 -16 10 -5
0 -9 -4 -9 -10z"/>
<path d="M3175 3190 c-4 -6 1 -7 11 -3 11 4 15 2 11 -4 -7 -11 14 -23 36 -23
13 1 -30 40 -44 40 -4 0 -11 -4 -14 -10z"/>
<path d="M3300 3180 c-9 -6 -10 -10 -3 -10 6 0 15 5 18 10 8 12 4 12 -15 0z"/>
<path d="M3080 3160 c0 -5 7 -10 15 -10 8 0 15 5 15 10 0 6 -7 10 -15 10 -8 0
-15 -4 -15 -10z"/>
<path d="M3120 3155 c0 -21 -27 -30 -45 -15 -24 20 -29 4 -6 -19 17 -17 26
-19 46 -11 17 6 23 14 19 25 -5 13 -1 15 22 10 l29 -7 -29 16 c-35 20 -36 20
-36 1z"/>
<path d="M2988 3108 c-12 -13 -36 -28 -53 -34 -16 -6 -31 -18 -33 -27 -3 -13
6 -16 51 -14 35 1 53 6 50 13 -3 7 6 10 24 7 27 -4 27 -4 9 11 -11 9 -16 16
-10 16 5 0 2 5 -6 10 -11 7 -7 10 18 10 19 0 31 4 27 10 -3 5 -13 6 -22 3 -11
-4 -14 -3 -9 5 13 21 -23 13 -46 -10z m-48 -52 c0 -3 -4 -8 -10 -11 -5 -3 -10
-1 -10 4 0 6 5 11 10 11 6 0 10 -2 10 -4z"/>
<path d="M3170 3091 c0 -10 19 -25 25 -20 1 2 -3 10 -11 17 -8 7 -14 8 -14 3z"/>
<path d="M3066 3076 c21 -15 30 -14 19 3 -3 6 -14 11 -23 11 -13 0 -13 -2 4
-14z"/>
<path d="M230 3070 c-9 -6 -10 -10 -3 -10 6 0 15 5 18 10 8 12 4 12 -15 0z"/>
<path d="M160 3045 c0 -21 15 -26 60 -19 49 8 41 19 -17 27 -32 4 -43 2 -43
-8z"/>
<path d="M3107 3035 c3 -8 9 -12 14 -9 12 7 11 11 -5 17 -10 4 -13 1 -9 -8z"/>
<path d="M2993 2973 c-23 -9 -14 -33 12 -33 25 0 36 19 13 21 -7 1 -2 5 12 9
l25 8 -25 0 c-14 0 -31 -2 -37 -5z"/>
<path d="M2907 2773 c-25 -24 16 -31 47 -8 19 14 18 15 -10 15 -17 0 -34 -3
-37 -7z"/>
<path d="M2975 2590 c3 -5 1 -10 -5 -10 -6 0 -9 -4 -6 -9 4 -5 21 -4 43 2 34
11 35 12 12 18 -36 10 -51 10 -44 -1z"/>
<path d="M2903 2243 c-9 -3 -10 -10 -3 -24 8 -15 7 -19 -5 -19 -27 0 -18 -35
10 -38 24 -2 32 14 26 51 0 4 4 7 9 7 6 0 10 7 10 15 0 15 -22 19 -47 8z"/>
<path d="M2848 2213 c7 -3 16 -2 19 1 4 3 -2 6 -13 5 -11 0 -14 -3 -6 -6z"/>
<path d="M2585 2200 c-3 -5 -1 -10 4 -10 6 0 11 5 11 10 0 6 -2 10 -4 10 -3 0
-8 -4 -11 -10z"/>
<path d="M2832 2191 c-10 -6 -10 -10 3 -21 13 -11 15 -9 15 9 0 24 0 24 -18
12z"/>
<path d="M2858 2143 c6 -2 18 -2 25 0 6 3 1 5 -13 5 -14 0 -19 -2 -12 -5z"/>
<path d="M3247 2033 c-4 -7 -22 -16 -40 -21 l-32 -9 32 -5 c40 -6 56 3 51 28
-2 14 -6 15 -11 7z"/>
<path d="M3277 1954 c-4 -4 -7 -19 -6 -33 l0 -26 10 24 c10 26 8 47 -4 35z"/>
<path d="M3250 1865 c-6 -17 -15 -25 -24 -22 -8 3 -20 0 -26 -8 -6 -8 -28 -15
-48 -17 -29 -2 -38 -8 -40 -25 -3 -17 3 -24 22 -29 46 -11 48 -24 16 -125 -16
-52 -33 -113 -38 -136 l-10 -43 33 0 c39 0 35 -9 70 155 14 66 35 153 46 193
20 73 20 111 -1 57z m-27 -110 c-3 -9 -8 -14 -10 -11 -3 3 -2 9 2 15 9 16 15
13 8 -4z"/>
<path d="M2180 1866 c0 -10 28 -13 41 -5 10 6 7 9 -13 9 -16 0 -28 -2 -28 -4z"/>
<path d="M2118 1823 c7 -3 16 -2 19 1 4 3 -2 6 -13 5 -11 0 -14 -3 -6 -6z"/>
<path d="M2168 1808 c7 -7 16 -7 28 0 14 8 13 10 -10 10 -18 0 -24 -4 -18 -10z"/>
<path d="M2110 1800 c0 -5 7 -7 15 -4 8 4 15 8 15 10 0 2 -7 4 -15 4 -8 0 -15
-4 -15 -10z"/>
<path d="M2152 1795 c4 -4 3 -14 -2 -20 -8 -9 -6 -14 5 -19 19 -7 21 29 3 40
-7 4 -10 4 -6 -1z"/>
<path d="M2075 1780 c3 -5 11 -10 16 -10 6 0 7 5 4 10 -3 6 -11 10 -16 10 -6
0 -7 -4 -4 -10z"/>
<path d="M1454 1635 c13 -10 14 -14 4 -18 -20 -8 44 -6 72 3 31 9 14 18 -49
23 -38 4 -42 2 -27 -8z"/>
<path d="M2515 1610 c4 -6 11 -8 16 -5 14 9 11 15 -7 15 -8 0 -12 -5 -9 -10z"/>
<path d="M2453 1562 c-7 -5 -9 -13 -4 -21 7 -11 11 -9 20 8 12 21 6 27 -16 13z"/>
<path d="M1250 1541 c0 -5 9 -11 20 -14 11 -3 18 -1 15 3 -3 5 3 11 12 13 10
3 3 5 -14 6 -18 0 -33 -3 -33 -8z"/>
<path d="M1385 1491 c-8 -14 12 -23 36 -16 17 6 19 9 8 16 -18 11 -36 11 -44
0z"/>
<path d="M1298 1483 c7 -3 16 -2 19 1 4 3 -2 6 -13 5 -11 0 -14 -3 -6 -6z"/>
<path d="M1760 1465 c-16 -19 -1 -19 24 0 16 12 17 15 4 15 -8 0 -21 -7 -28
-15z"/>
<path d="M1830 1470 c0 -5 5 -10 10 -10 6 0 10 5 10 10 0 6 -4 10 -10 10 -5 0
-10 -4 -10 -10z"/>
<path d="M1414 1454 c-18 -15 -17 -15 15 -10 18 3 39 6 45 6 14 0 -15 20 -30
20 -5 0 -19 -7 -30 -16z"/>
<path d="M3097 1443 c-3 -5 -8 -29 -12 -56 -4 -26 -16 -59 -27 -72 -17 -21
-18 -28 -7 -41 12 -14 9 -14 -25 0 -21 9 -50 16 -65 16 -38 0 -77 23 -73 43 2
11 -7 21 -25 27 -73 27 -103 44 -91 51 19 12 -6 33 -29 25 -15 -6 -15 -9 -3
-17 11 -7 4 -8 -22 -3 -35 6 -38 5 -38 -19 0 -17 -12 -32 -41 -53 -38 -26 -40
-28 -19 -36 14 -5 20 -14 16 -23 -3 -9 0 -15 9 -15 8 0 22 -12 32 -26 13 -20
22 -25 44 -20 18 3 29 0 33 -9 3 -9 0 -12 -8 -9 -8 3 -17 1 -20 -4 -7 -11 40
-26 54 -17 5 3 11 1 15 -5 3 -5 14 -10 24 -10 10 0 24 -6 30 -14 6 -7 42 -16
87 -19 59 -6 82 -12 104 -31 20 -16 25 -27 18 -34 -12 -12 -1 -35 13 -27 17
11 79 -7 79 -22 0 -11 7 -13 25 -9 15 4 25 2 25 -5 0 -16 28 -41 39 -34 6 3 8
18 7 33 -2 15 -4 37 -5 49 -1 16 -11 25 -38 33 -52 17 -73 38 -73 72 0 28 25
206 36 261 5 25 4 27 -30 27 -19 0 -37 -3 -39 -7z m-301 -181 c-4 -3 -12 0
-19 7 -9 9 -9 14 3 21 11 7 16 5 18 -6 2 -9 1 -18 -2 -22z"/>
<path d="M1488 1434 c-9 -8 43 -64 59 -64 7 0 13 -5 13 -10 0 -7 6 -7 19 0 25
13 34 13 26 -1 -4 -6 2 -13 14 -16 29 -8 27 -33 -3 -33 -14 0 -28 -5 -32 -12
-4 -6 -3 -8 4 -4 6 3 17 -1 25 -9 9 -8 32 -15 51 -15 20 0 36 -4 36 -8 0 -8
43 -32 55 -32 3 0 5 9 5 20 0 14 -7 20 -22 20 -13 0 -40 6 -60 13 -26 9 -34
17 -28 26 4 8 12 11 18 7 6 -3 13 -2 17 4 12 19 33 11 28 -10 -5 -18 0 -20 36
-20 23 0 50 -6 61 -12 17 -11 22 -10 30 2 11 17 -5 30 -38 30 -13 0 -20 4 -17
10 3 6 -1 10 -10 10 -11 0 -15 5 -12 14 3 8 3 17 -1 19 -4 2 -1 2 6 0 17 -4
36 16 40 41 2 11 -1 16 -10 13 -7 -2 -21 3 -31 12 -17 14 -20 14 -32 -3 -12
-16 -12 -24 0 -52 15 -36 5 -45 -22 -18 -9 8 -22 13 -30 10 -8 -3 -11 -1 -8 4
6 10 -21 15 -63 11 -13 -1 -31 8 -45 23 -22 26 -67 43 -79 30z"/>
<path d="M1263 1380 c-13 -5 -23 -11 -23 -14 0 -7 40 6 46 15 6 10 6 10 -23
-1z"/>
<path d="M1500 1350 c-21 -7 -21 -8 -5 -9 11 0 27 4 35 9 18 11 5 11 -30 0z"/>
<path d="M1858 1333 c6 -2 18 -2 25 0 6 3 1 5 -13 5 -14 0 -19 -2 -12 -5z"/>
<path d="M2380 1333 c1 -5 14 -24 30 -43 30 -34 30 -34 30 -9 0 14 -8 33 -18
42 -19 18 -42 23 -42 10z"/>
<path d="M1828 1203 c7 -3 16 -2 19 1 4 3 -2 6 -13 5 -11 0 -14 -3 -6 -6z"/>
<path d="M2603 1037 c3 -9 -1 -18 -11 -22 -16 -6 -16 -7 1 -16 9 -6 15 -14 12
-19 -3 -5 4 -11 14 -15 11 -3 23 -16 27 -27 7 -22 38 -60 83 -101 106 -96 161
-143 198 -168 38 -26 43 -28 43 -11 0 28 57 111 83 121 54 21 58 127 5 119
-16 -2 -27 -16 -39 -48 -16 -42 -17 -43 -30 -23 -12 20 -14 20 -25 5 -7 -9
-16 -13 -20 -9 -5 4 -2 12 5 16 17 11 5 32 -14 24 -8 -3 -15 -1 -15 5 0 15 60
26 73 13 6 -6 15 -11 21 -11 5 0 1 8 -10 18 -11 11 -35 17 -59 17 -36 0 -40 2
-38 23 3 24 -8 28 -37 12 -13 -7 -21 -7 -25 0 -3 5 -14 10 -24 10 -21 0 -47
27 -53 55 -3 15 -10 19 -33 17 -57 -4 -76 -2 -107 14 -27 14 -30 14 -25 1z
m277 -127 c0 -5 -4 -10 -10 -10 -5 0 -10 5 -10 10 0 6 5 10 10 10 6 0 10 -4
10 -10z"/>
<path d="M3000 604 c46 -60 89 -103 133 -131 65 -42 113 -86 131 -121 15 -30
36 -198 36 -292 l0 -60 58 0 c54 0 58 2 80 34 13 20 29 33 37 30 9 -4 15 9 20
45 4 28 10 51 15 51 9 0 19 57 26 150 4 50 1 73 -13 100 -20 38 -19 38 -119
19 -68 -14 -114 -6 -121 19 -5 16 -166 102 -192 102 -8 0 -11 8 -8 20 4 15 -2
22 -26 29 -18 5 -41 12 -52 17 -18 7 -19 6 -5 -12z"/>
<path d="M2786 301 c-4 -7 -5 -15 -2 -18 9 -9 19 4 14 18 -4 11 -6 11 -12 0z"/>
<path d="M2815 20 c3 -5 15 -10 26 -10 10 0 19 5 19 10 0 6 -12 10 -26 10 -14
0 -23 -4 -19 -10z"/>
</g>
</svg>
